<?xml version="1.0" encoding="utf-8"?>
<!-- Generator: Adobe Illustrator 25.2.1, SVG Export Plug-In . SVG Version: 6.00 Build 0)  -->
<svg version="1.1" id="Layer_1" xmlns="http://www.w3.org/2000/svg" xmlns:xlink="http://www.w3.org/1999/xlink" x="0px" y="0px"
	 viewBox="0 0 50 26.3" style="enable-background:new 0 0 50 26.3;" xml:space="preserve">
<style type="text/css">
	.st0{fill:#012169;}
	.st1{fill:#FFFFFF;}
	.st2{fill:#E4002B;}
</style>
<rect y="0" class="st0" width="50" height="26.4"/>
<polygon class="st1" points="26.4,0 26.4,0 23.4,0 13.2,5.1 2.9,0 0,0 0,0 0,1.5 10.2,6.6 0,11.7 0,13.2 0,13.2 2.9,13.2 13.2,8.1 
	23.4,13.2 26.4,13.2 26.4,13.2 26.4,11.7 16.1,6.6 26.4,1.5 "/>
<polygon class="st2" points="0,13.2 0,13.2 2,13.2 13.2,7.6 13.2,6.6 13.2,6.6 "/>
<polygon class="st2" points="15.1,6.6 13.2,6.6 26.4,13.2 26.4,12.2 "/>
<polygon class="st2" points="26.4,0 26.4,0 24.4,0 13.2,5.6 13.2,5.6 13.2,6.6 0,0 0,0 0,1 11.2,6.6 13.2,6.6 13.2,6.6 13.2,6.6 
	13.2,6.6 13.2,6.6 "/>
<polygon class="st1" points="15.4,13.2 11,13.2 11,8.8 0,8.8 0,4.4 11,4.4 11,0 15.4,0 15.4,4.4 26.4,4.4 26.4,8.8 15.4,8.8 "/>
<polygon class="st2" points="14.5,13.2 11.9,13.2 11.9,7.9 0,7.9 0,5.3 11.9,5.3 11.9,0 14.5,0 14.5,5.3 26.4,5.3 26.4,7.9 
	14.5,7.9 "/>
<polygon class="st1" points="14.9,19.4 16.3,17.3 13.9,18.2 13.2,15.8 12.4,18.2 10.1,17.3 11.5,19.4 9.3,20.7 11.8,20.9 11.5,23.3 
	13.2,21.5 14.9,23.3 14.6,20.9 17,20.7 "/>
<polygon class="st1" points="40.4,21.8 41,20.8 39.9,21.2 39.5,20.1 39.2,21.2 38.1,20.8 38.7,21.8 37.7,22.4 38.9,22.5 38.7,23.7 
	39.5,22.8 40.4,23.7 40.2,22.5 41.4,22.4 "/>
<polygon class="st1" points="33.8,11.3 34.4,10.4 33.3,10.8 33,9.7 32.6,10.8 31.5,10.4 32.1,11.3 31.1,12 32.3,12.1 32.1,13.2 
	33,12.4 33.8,13.2 33.6,12.1 34.8,12 "/>
<polygon class="st1" points="38.9,4.9 38.7,6.1 39.5,5.2 40.4,6.1 40.2,4.9 41.4,4.8 40.4,4.2 41,3.2 39.9,3.6 39.5,2.5 39.2,3.6 
	38.1,3.2 38.7,4.2 37.7,4.8 "/>
<polygon class="st1" points="47.2,10.2 46.2,9.6 46.9,8.6 45.8,9 45.4,7.9 45,9 43.9,8.6 44.6,9.6 43.6,10.2 44.7,10.3 44.6,11.5 
	45.4,10.6 46.2,11.5 46.1,10.3 "/>
<polygon class="st1" points="42.5,13.9 42.2,13.2 41.9,13.9 41.1,13.9 41.7,14.4 41.5,15.2 42.2,14.8 42.8,15.2 42.6,14.4 
	43.2,13.9 "/>
</svg>
