<?xml version="1.0" encoding="utf-8"?>
<!-- Generator: Adobe Illustrator 25.2.1, SVG Export Plug-In . SVG Version: 6.00 Build 0)  -->
<svg version="1.1" id="Layer_1" xmlns="http://www.w3.org/2000/svg" xmlns:xlink="http://www.w3.org/1999/xlink" x="0px" y="0px"
	 viewBox="0 0 50 26.3" style="enable-background:new 0 0 50 26.3;" xml:space="preserve">
<style type="text/css">
	.st0{fill:#FF0000;}
	.st1{fill:#FFFFFF;}
</style>
<path class="st0" d="M-0.1,0h12.5l0.5,0.5h24L37.5,0H50v26.3H37.5L37,25.8h-24l-0.5,0.5H-0.1V0z"/>
<path class="st1" d="M12.5,0h25.1l-0.1,26.3H12.4L12.5,0z M25.4,23.8l-0.2-4.5c0-0.3,0.2-0.5,0.5-0.5c0,0,0.1,0,0.1,0l4.5,0.8
	l-0.6-1.7c-0.1-0.1,0-0.3,0.1-0.4l4.9-4L33.5,13c-0.2-0.1-0.2-0.3-0.2-0.4l1-3l-2.8,0.6c-0.2,0-0.3,0-0.4-0.2l-0.5-1.3l-2.2,2.4
	c-0.1,0.1-0.3,0.1-0.5,0c-0.1-0.1-0.1-0.2-0.1-0.3l1.1-5.5l-1.7,1c-0.2,0.1-0.4,0-0.5-0.1c0,0,0,0,0,0l-1.7-3.4l-1.7,3.4
	c-0.1,0.2-0.3,0.2-0.5,0.1c0,0,0,0,0,0l-1.7-1l1.1,5.5c0,0.2-0.1,0.4-0.3,0.4c-0.1,0-0.2,0-0.3-0.1l-2.2-2.4L18.8,10
	c-0.1,0.1-0.2,0.2-0.4,0.2l-2.8-0.6l1,3c0.1,0.2,0,0.3-0.2,0.4l-1.1,0.5l4.9,4c0.1,0.1,0.2,0.2,0.1,0.4l-0.6,1.7l4.5-0.8
	c0.3,0,0.5,0.1,0.6,0.4c0,0,0,0.1,0,0.1l-0.2,4.5L25.4,23.8z"/>
</svg>
