<?xml version="1.0" encoding="utf-8"?>
<svg version="1.1" id="Layer_1" xmlns="http://www.w3.org/2000/svg" xmlns:xlink="http://www.w3.org/1999/xlink" x="0px" y="0px"
	 viewBox="0 0 50 26.3" style="enable-background:new 0 0 50 26.3;" xml:space="preserve">
<style type="text/css">
	.st0{fill:#B22234;}
	.st1{stroke:#FFFFFF;stroke-width:2.0243;stroke-miterlimit:10;}
	.st2{fill:#3C3B6E;}
	.st3{fill:#FFFFFF;}
</style>
<rect y="0" class="st0" width="50" height="26.3"/>
<path class="st1" d="M0,3h50 M50,7.1H0 M0,11.1h50 M50,15.2H0 M0,19.2h50 M50,23.3H0"/>
<rect y="0" class="st2" width="20" height="14.2"/>
		<polygon class="st3" points="1.7,0.6 1.5,1.2 0.9,1.2 1.4,1.5 1.2,2.1 1.7,1.7 2.1,2.1 2,1.5 2.4,1.2 1.8,1.2 		"/>
		<polygon class="st3" points="1.7,3.4 1.5,4 0.9,4 1.4,4.3 1.2,4.9 1.7,4.6 2.1,4.9 2,4.3 2.4,4 1.8,4 		"/>
		<polygon class="st3" points="1.7,6.3 1.5,6.8 0.9,6.8 1.4,7.2 1.2,7.7 1.7,7.4 2.1,7.7 2,7.2 2.4,6.8 1.8,6.8 		"/>
		<polygon class="st3" points="1.7,9.1 1.5,9.7 0.9,9.7 1.4,10 1.2,10.6 1.7,10.2 2.1,10.6 2,10 2.4,9.7 1.8,9.7 		"/>
		<polygon class="st3" points="1.8,12.5 1.7,11.9 1.5,12.5 0.9,12.5 1.4,12.8 1.2,13.4 1.7,13.1 2.1,13.4 2,12.8 2.4,12.5 		"/>
		<polygon class="st3" points="3.3,2 3.2,2.6 2.6,2.6 3,2.9 2.9,3.5 3.3,3.1 3.8,3.5 3.6,2.9 4.1,2.6 3.5,2.6 		"/>
		<polygon class="st3" points="3.3,4.9 3.2,5.4 2.6,5.4 3,5.8 2.9,6.3 3.3,6 3.8,6.3 3.6,5.8 4.1,5.4 3.5,5.4 		"/>
		<polygon class="st3" points="3.3,7.7 3.2,8.3 2.6,8.3 3,8.6 2.9,9.2 3.3,8.8 3.8,9.2 3.6,8.6 4.1,8.3 3.5,8.3 		"/>
		<polygon class="st3" points="3.5,11.1 3.3,10.5 3.2,11.1 2.6,11.1 3,11.4 2.9,12 3.3,11.6 3.8,12 3.6,11.4 4.1,11.1 		"/>
		<polygon class="st3" points="5,0.6 4.8,1.2 4.2,1.2 4.7,1.5 4.5,2.1 5,1.7 5.5,2.1 5.3,1.5 5.8,1.2 5.2,1.2 		"/>
		<polygon class="st3" points="5,3.4 4.8,4 4.2,4 4.7,4.3 4.5,4.9 5,4.6 5.5,4.9 5.3,4.3 5.8,4 5.2,4 		"/>
		<polygon class="st3" points="5,6.3 4.8,6.8 4.2,6.8 4.7,7.2 4.5,7.7 5,7.4 5.5,7.7 5.3,7.2 5.8,6.8 5.2,6.8 		"/>
		<polygon class="st3" points="5,9.1 4.8,9.7 4.2,9.7 4.7,10 4.5,10.6 5,10.2 5.5,10.6 5.3,10 5.8,9.7 5.2,9.7 		"/>
		<polygon class="st3" points="5.2,12.5 5,11.9 4.8,12.5 4.2,12.5 4.7,12.8 4.5,13.4 5,13.1 5.5,13.4 5.3,12.8 5.8,12.5"/>
		<polygon class="st3" points="6.4,2.9 6.2,3.5 6.7,3.1 7.1,3.5 7,2.9 7.4,2.6 6.8,2.6 6.7,2 6.5,2.6 5.9,2.6 		"/>
		<polygon class="st3" points="6.7,4.9 6.5,5.4 5.9,5.4 6.4,5.8 6.2,6.3 6.7,6 7.1,6.3 7,5.8 7.4,5.4 6.8,5.4 		"/>
		<polygon class="st3" points="6.7,7.7 6.5,8.3 5.9,8.3 6.4,8.6 6.2,9.2 6.7,8.8 7.1,9.2 7,8.6 7.4,8.3 6.8,8.3 		"/>
		<polygon class="st3" points="6.8,11.1 6.7,10.5 6.5,11.1 5.9,11.1 6.4,11.4 6.2,12 6.7,11.6 7.1,12 7,11.4 7.4,11.1 		"/>
		<polygon class="st3" points="8.3,0.6 8.2,1.2 7.6,1.2 8,1.5 7.9,2.1 8.3,1.7 8.8,2.1 8.6,1.5 9.1,1.2 8.5,1.2 		"/>
		<polygon class="st3" points="8.3,3.4 8.2,4 7.6,4 8,4.3 7.9,4.9 8.3,4.6 8.8,4.9 8.6,4.3 9.1,4 8.5,4 		"/>
		<polygon class="st3" points="8.3,6.3 8.2,6.8 7.6,6.8 8,7.2 7.9,7.7 8.3,7.4 8.8,7.7 8.6,7.2 9.1,6.8 8.5,6.8 		"/>
		<polygon class="st3" points="8.3,9.1 8.2,9.7 7.6,9.7 8,10 7.9,10.6 8.3,10.2 8.8,10.6 8.6,10 9.1,9.7 8.5,9.7 		"/>
		<polygon class="st3" points="8.5,12.5 8.3,11.9 8.2,12.5 7.6,12.5 8,12.8 7.9,13.4 8.3,13.1 8.8,13.4 8.6,12.8 9.1,12.5 		"/>
		<polygon class="st3" points="10,2 9.8,2.6 9.2,2.6 9.7,2.9 9.5,3.5 10,3.1 10.5,3.5 10.3,2.9 10.8,2.6 10.2,2.6 		"/>
		<polygon class="st3" points="10,4.9 9.8,5.4 9.2,5.4 9.7,5.8 9.5,6.3 10,6 10.5,6.3 10.3,5.8 10.8,5.4 10.2,5.4 		"/>
		<polygon class="st3" points="10,7.7 9.8,8.3 9.2,8.3 9.7,8.6 9.5,9.2 10,8.8 10.5,9.2 10.3,8.6 10.8,8.3 10.2,8.3 		"/>
		<polygon class="st3" points="10.2,11.1 10,10.5 9.8,11.1 9.2,11.1 9.7,11.4 9.5,12 10,11.6 10.5,12 10.3,11.4 10.8,11.1 		"/>
		<polygon class="st3" points="11.7,0.6 11.5,1.2 10.9,1.2 11.4,1.5 11.2,2.1 11.7,1.7 12.1,2.1 12,1.5 12.4,1.2 11.8,1.2 		"/>
		<polygon class="st3" points="11.7,3.4 11.5,4 10.9,4 11.4,4.3 11.2,4.9 11.7,4.6 12.1,4.9 12,4.3 12.4,4 11.8,4 		"/>
		<polygon class="st3" points="11.7,6.3 11.5,6.8 10.9,6.8 11.4,7.2 11.2,7.7 11.7,7.4 12.1,7.7 12,7.2 12.4,6.8 11.8,6.8 		"/>
		<polygon class="st3" points="11.7,9.1 11.5,9.7 10.9,9.7 11.4,10 11.2,10.6 11.7,10.2 12.1,10.6 12,10 12.4,9.7 11.8,9.7 		"/>
		<polygon class="st3" points="11.8,12.5 11.7,11.9 11.5,12.5 10.9,12.5 11.4,12.8 11.2,13.4 11.7,13.1 12.1,13.4 12,12.812.4,12.5"/>
		<polygon class="st3" points="13,2.9 12.9,3.5 13.3,3.1 13.8,3.5 13.6,2.9 14.1,2.6 13.5,2.6 13.3,2 13.2,2.6 12.6,2.6"/>
		<polygon class="st3" points="13.3,4.9 13.2,5.4 12.6,5.4 13,5.8 12.9,6.3 13.3,6 13.8,6.3 13.6,5.8 14.1,5.4 13.5,5.4"/>
		<polygon class="st3" points="13.3,7.7 13.2,8.3 12.6,8.3 13,8.6 12.9,9.2 13.3,8.8 13.8,9.2 13.6,8.6 14.1,8.3 13.5,8.3 "/>
		<polygon class="st3" points="13.5,11.1 13.3,10.5 13.2,11.1 12.6,11.1 13,11.4 12.9,12 13.3,11.6 13.8,12 13.6,11.4 14.1,11.1"/>
		<polygon class="st3" points="15,0.6 14.8,1.2 14.2,1.2 14.7,1.5 14.5,2.1 15,1.7 15.5,2.1 15.3,1.5 15.8,1.2 15.2,1.2"/>
		<polygon class="st3" points="15,3.4 14.8,4 14.2,4 14.7,4.3 14.5,4.9 15,4.6 15.5,4.9 15.3,4.3 15.8,4 15.2,4"/>
		<polygon class="st3" points="15,6.3 14.8,6.8 14.2,6.8 14.7,7.2 14.5,7.7 15,7.4 15.5,7.7 15.3,7.2 15.8,6.8 15.2,6.8"/>
		<polygon class="st3" points="15,9.1 14.8,9.7 14.2,9.7 14.7,10 14.5,10.6 15,10.2 15.5,10.6 15.3,10 15.8,9.7 15.2,9.7"/>
		<polygon class="st3" points="15.2,12.5 15,11.9 14.8,12.5 14.2,12.5 14.7,12.8 14.5,13.4 15,13.1 15.5,13.4 15.3,12.8 15.8,12.5"/>
		<polygon class="st3" points="16.4,2.9 16.2,3.5 16.7,3.1 17.1,3.5 17,2.9 17.4,2.6 16.8,2.6 16.7,2 16.5,2.6 15.9,2.6"/>
		<polygon class="st3" points="16.7,4.9 16.5,5.4 15.9,5.4 16.4,5.8 16.2,6.3 16.7,6 17.1,6.3 17,5.8 17.4,5.4 16.8,5.4"/>
		<polygon class="st3" points="16.7,7.7 16.5,8.3 15.9,8.3 16.4,8.6 16.2,9.2 16.7,8.8 17.1,9.2 17,8.6 17.4,8.3 16.8,8.3"/>
		<polygon class="st3" points="16.8,11.1 16.7,10.5 16.5,11.1 15.9,11.1 16.4,11.4 16.2,12 16.7,11.6 17.1,12 17,11.4 17.4,11.1"/>
		<polygon class="st3" points="18,1.5 17.9,2.1 18.3,1.7 18.8,2.1 18.6,1.5 19.1,1.2 18.5,1.2 18.3,0.6 18.2,1.2 17.6,1.2 		"/>
		<polygon class="st3" points="18.3,3.4 18.2,4 17.6,4 18,4.3 17.9,4.9 18.3,4.6 18.8,4.9 18.6,4.3 19.1,4 18.5,4 		"/>
		<polygon class="st3" points="18.3,6.3 18.2,6.8 17.6,6.8 18,7.2 17.9,7.7 18.3,7.4 18.8,7.7 18.6,7.2 19.1,6.8 18.5,6.8 		"/>
		<polygon class="st3" points="18.3,9.1 18.2,9.7 17.6,9.7 18,10 17.9,10.6 18.3,10.2 18.8,10.6 18.6,10 19.1,9.7 18.5,9.7 		"/>
		<polygon class="st3" points="18.5,12.5 18.3,11.9 18.2,12.5 17.6,12.5 18,12.8 17.9,13.4 18.3,13.1 18.8,13.4 18.6,12.8 19.1,12.5"/>
</svg>