<svg width="26" height="25" viewBox="0 0 26 25" fill="none" xmlns="http://www.w3.org/2000/svg">
<path d="M12.1045 0C4.80699 0 0 4.77267 0 11.7994C0 18.8262 6.06113 25 13.3571 25C20.6546 25 26 19.6726 26 12.6459C26 5.61915 19.4005 0 12.1045 0ZM21.2317 6.22996C21.43 6.47525 21.4187 6.82795 21.2091 7.06361L21.0415 7.25439C19.1845 9.42029 17.3597 11.0988 14.3098 11.6952C13.8632 11.7834 13.4651 11.3954 13.5392 10.9481C14.0244 8.00789 15.8186 5.59831 17.4467 4.21957L17.753 4.01436C18.0818 3.79313 18.5106 3.79473 18.8443 4.00795C19.9066 4.6893 20.4547 5.27126 21.2285 6.23156L21.2317 6.22996ZM7.55224 3.56227C7.37169 3.41317 7.40393 3.1262 7.61349 3.022C9.05623 2.30217 10.3394 2.06169 12.2496 2.06169C13.9084 2.06169 15.1657 2.30858 16.6391 2.93222C16.8873 3.03803 16.9131 3.3779 16.681 3.51417L16.2716 3.75625C14.716 4.47608 12.1303 5.63358 8.11321 3.86847C8.05196 3.84122 7.64412 3.63922 7.55385 3.56387L7.55224 3.56227ZM4.50716 5.72496C4.41366 5.49731 4.45558 5.23438 4.61839 5.05002C5.13423 4.46486 5.69682 4.10094 5.69682 4.10094C5.9096 3.92619 6.11272 3.89733 6.34001 4.05605C9.92027 6.55861 10.9294 8.11851 11.5081 10.9577C11.5968 11.397 11.226 11.7914 10.7795 11.7353C8.94017 11.4996 6.39643 10.7589 4.55391 5.83718L4.50716 5.72656V5.72496ZM2.81778 13.6318C2.62757 13.8242 2.29872 13.7168 2.25842 13.4507C2.18265 12.9473 2.14235 12.4343 2.14235 11.9164C2.14235 10.0423 2.5518 8.36219 3.30622 6.94017C3.46097 6.64839 3.89299 6.69007 3.99293 7.0043C4.41528 8.71489 4.86019 11.0892 2.98865 13.4603L2.81778 13.6318ZM3.02412 16.1312C2.92579 15.825 3.0483 15.4899 3.32717 15.3264C6.47219 13.4908 9.66074 13.4507 11.284 13.4603C11.4887 13.4603 11.6419 13.6463 11.6048 13.8467C11.0922 16.6795 9.54628 18.6338 7.18631 20.4678C6.94935 20.6522 6.61566 20.6522 6.3787 20.4678C6.12561 20.2722 3.64474 18.0646 3.02412 16.1296V16.1312ZM13.299 22.9415C11.3292 22.9415 9.46891 22.4028 7.85207 21.4762C7.62478 21.3464 7.6409 21.0113 7.87947 20.9007L8.14223 20.7772C10.1862 19.8426 13.6972 20.5913 16.3231 21.5804C16.6246 21.6942 16.8938 21.356 16.71 21.0914C15.8299 19.8265 13.8922 17.1444 13.478 14.3789C13.4199 13.9942 13.7181 13.6447 14.1099 13.6367C17.8562 13.5533 20.0469 15.1356 22.1054 17.0322C22.1054 17.0322 22.1183 17.0434 22.1376 17.0627C22.4617 17.3657 22.5423 17.8482 22.3311 18.2378C22.165 18.5456 21.9587 18.8823 21.7669 19.0714C19.1506 21.667 17.5128 22.9399 13.299 22.9399V22.9415ZM23.5014 15.4082C23.4256 15.6679 23.0807 15.7272 22.9211 15.5092L22.8018 15.3456C21.625 13.6912 20.4112 11.2271 21.891 7.95338C21.891 7.95338 21.9249 7.88444 21.97 7.79306C22.0796 7.57022 22.3907 7.54617 22.5342 7.74977C22.6083 7.85559 22.668 7.93895 22.668 7.93895C23.416 9.35777 23.8593 10.6756 23.8593 12.625C23.8593 13.8338 23.7464 14.5408 23.524 15.3312L23.5014 15.4114V15.4082Z" fill="black"/>
</svg>
