<svg width="525" height="243" viewBox="0 0 525 243" fill="none" xmlns="http://www.w3.org/2000/svg">
<path d="M187.145 233.58C187.145 234.797 186.933 235.921 186.509 236.953C186.094 237.977 185.504 238.866 184.742 239.621C183.98 240.368 183.06 240.953 181.982 241.376C180.911 241.792 179.722 242 178.413 242H171.875V225.172H178.413C179.722 225.172 180.911 225.383 181.982 225.807C183.06 226.23 183.98 226.816 184.742 227.562C185.504 228.309 186.094 229.199 186.509 230.231C186.933 231.255 187.145 232.371 187.145 233.58ZM183.148 233.58C183.148 232.748 183.04 231.998 182.825 231.328C182.609 230.658 182.297 230.092 181.889 229.63C181.489 229.16 180.996 228.802 180.411 228.556C179.826 228.302 179.16 228.175 178.413 228.175H175.802V238.997H178.413C179.16 238.997 179.826 238.874 180.411 238.627C180.996 238.373 181.489 238.015 181.889 237.553C182.297 237.084 182.609 236.514 182.825 235.844C183.04 235.174 183.148 234.419 183.148 233.58Z" fill="white"/>
<path d="M200.537 242H196.61V225.172H200.537V242Z" fill="white"/>
<path d="M220.242 228.59C220.127 228.775 220.003 228.914 219.872 229.006C219.749 229.099 219.588 229.145 219.387 229.145C219.21 229.145 219.018 229.091 218.81 228.983C218.61 228.868 218.379 228.741 218.117 228.602C217.863 228.463 217.57 228.34 217.239 228.232C216.908 228.117 216.531 228.059 216.107 228.059C215.376 228.059 214.829 228.217 214.467 228.533C214.113 228.841 213.936 229.26 213.936 229.792C213.936 230.13 214.044 230.411 214.259 230.635C214.475 230.858 214.756 231.051 215.102 231.212C215.456 231.374 215.857 231.524 216.303 231.663C216.758 231.794 217.22 231.944 217.689 232.113C218.159 232.275 218.617 232.467 219.064 232.691C219.518 232.914 219.919 233.199 220.265 233.545C220.619 233.892 220.904 234.315 221.12 234.816C221.335 235.309 221.443 235.905 221.443 236.606C221.443 237.384 221.308 238.111 221.039 238.789C220.769 239.467 220.377 240.06 219.861 240.568C219.353 241.068 218.721 241.465 217.967 241.757C217.22 242.042 216.369 242.185 215.414 242.185C214.891 242.185 214.355 242.131 213.809 242.023C213.27 241.915 212.746 241.765 212.238 241.573C211.73 241.372 211.252 241.138 210.806 240.868C210.359 240.599 209.97 240.298 209.639 239.967L210.794 238.142C210.887 238.011 211.006 237.904 211.152 237.819C211.306 237.726 211.472 237.68 211.649 237.68C211.88 237.68 212.111 237.753 212.342 237.9C212.581 238.046 212.846 238.208 213.139 238.385C213.439 238.562 213.782 238.724 214.167 238.87C214.552 239.016 215.006 239.089 215.53 239.089C216.238 239.089 216.789 238.935 217.181 238.627C217.574 238.312 217.77 237.815 217.77 237.137C217.77 236.745 217.663 236.425 217.447 236.179C217.231 235.932 216.946 235.728 216.592 235.567C216.246 235.405 215.849 235.262 215.403 235.139C214.956 235.016 214.498 234.881 214.028 234.735C213.558 234.581 213.1 234.396 212.654 234.181C212.207 233.957 211.807 233.669 211.452 233.314C211.106 232.952 210.825 232.506 210.609 231.975C210.394 231.436 210.286 230.773 210.286 229.988C210.286 229.357 210.413 228.741 210.667 228.14C210.921 227.539 211.295 227.004 211.787 226.535C212.28 226.065 212.885 225.691 213.601 225.414C214.317 225.129 215.137 224.987 216.061 224.987C216.577 224.987 217.077 225.029 217.562 225.114C218.055 225.191 218.521 225.31 218.96 225.472C219.399 225.626 219.807 225.815 220.184 226.038C220.569 226.253 220.912 226.5 221.212 226.777L220.242 228.59Z" fill="white"/>
<path d="M242.989 228.267H238.253V242H234.349V228.267H229.614V225.172H242.989V228.267Z" fill="white"/>
<path d="M256.061 242H252.134V225.172H256.061V242Z" fill="white"/>
<path d="M276.609 238.881V242H266.468V225.172H270.372V238.881H276.609Z" fill="white"/>
<path d="M295.907 238.881V242H285.766V225.172H289.67V238.881H295.907Z" fill="white"/>
<path d="M308.99 228.175V232.102H314.28V234.989H308.99V238.997H315.897V242H305.063V225.172H315.897V228.175H308.99Z" fill="white"/>
<path d="M330.941 233.083C331.472 233.083 331.923 233.018 332.292 232.887C332.669 232.748 332.977 232.56 333.216 232.321C333.455 232.082 333.628 231.805 333.736 231.489C333.844 231.166 333.898 230.82 333.898 230.45C333.898 229.711 333.655 229.133 333.17 228.717C332.693 228.302 331.95 228.094 330.941 228.094H329.37V233.083H330.941ZM339.234 242H335.699C335.045 242 334.575 241.754 334.29 241.261L331.495 236.375C331.364 236.167 331.218 236.017 331.056 235.925C330.895 235.825 330.664 235.775 330.363 235.775H329.37V242H325.466V225.172H330.941C332.157 225.172 333.193 225.299 334.048 225.553C334.91 225.799 335.611 226.146 336.15 226.592C336.697 227.039 337.093 227.566 337.34 228.175C337.586 228.783 337.709 229.445 337.709 230.161C337.709 230.708 337.636 231.224 337.49 231.709C337.343 232.194 337.128 232.644 336.843 233.06C336.558 233.468 336.204 233.834 335.78 234.158C335.364 234.481 334.883 234.747 334.337 234.954C334.591 235.085 334.829 235.251 335.053 235.451C335.276 235.644 335.476 235.875 335.653 236.144L339.234 242Z" fill="white"/>
<path d="M354.969 235.601V242H351.065V235.601L344.966 225.172H348.408C348.747 225.172 349.013 225.252 349.205 225.414C349.405 225.568 349.571 225.768 349.702 226.015L352.081 230.912C352.281 231.297 352.462 231.659 352.624 231.998C352.786 232.329 352.928 232.656 353.051 232.979C353.167 232.648 353.298 232.317 353.444 231.986C353.598 231.647 353.775 231.289 353.975 230.912L356.332 226.015C356.385 225.915 356.451 225.815 356.528 225.714C356.605 225.614 356.693 225.526 356.794 225.449C356.901 225.364 357.021 225.299 357.152 225.252C357.29 225.199 357.44 225.172 357.602 225.172H361.067L354.969 235.601Z" fill="white"/>
<path d="M54.5254 203.615V157.475L63.3103 157.456V195.97H84.5126V203.615H54.5254Z" fill="white"/>
<path d="M95.9179 203.615V157.456L122.292 157.475V165.178H104.69V176.468H117.416V184.113H104.69V195.906H123.348V203.615H95.9179Z" fill="white"/>
<path d="M168.157 203.615V193.884L145.886 171.599V203.615H137.12V157.456H142.981L168.157 182.658V157.456L176.942 157.475V203.615H168.157Z" fill="white"/>
<path d="M205.596 203.615H192.528V157.475L205.197 157.456C218.767 157.475 232.099 165.758 232.099 180.706C232.099 195.655 219.083 203.615 205.603 203.615H205.596ZM205.455 165.178H201.307V195.738H205.757C215.824 195.738 222.986 190.045 222.979 180.706C222.979 171.425 215.437 165.184 205.455 165.184V165.178Z" fill="white"/>
<path d="M272.036 203.615L267.392 190.612H251.787L247.163 203.615H238.056L255.935 157.475H263.496L281.362 203.622H272.036V203.615ZM259.593 168.508L254.144 183.862H265.042L259.593 168.508Z" fill="white"/>
<path d="M291.904 203.615V157.456L300.676 157.475V195.97H321.879V203.615H291.904Z" fill="white"/>
<path d="M415.558 203.615V199.055C413.426 200.942 409.845 204.44 400.906 204.44C391.966 204.44 385.455 197.941 385.455 187.61V157.456H394.234V186.303C394.234 193.053 397.731 196.795 403.585 196.795C410.077 196.795 414.315 191.926 415.552 190.129V157.475L424.292 157.456V203.615H415.552H415.558Z" fill="white"/>
<path d="M511.216 184.113H496.518V203.615H487.753V157.456L496.518 157.475V176.559H515.518V157.456H524.29L524.296 203.615H515.518V184.113H511.216Z" fill="white"/>
<path d="M350.862 156C337.357 156 326.401 166.949 326.401 180.461C326.401 193.974 337.35 204.922 350.862 204.922C364.375 204.922 375.324 193.974 375.324 180.461C375.324 166.949 364.375 156 350.862 156ZM350.862 197.059C341.73 197.059 334.304 189.613 334.304 180.455C334.304 171.296 341.73 163.851 350.862 163.851C359.995 163.851 367.421 171.296 367.421 180.455C367.421 189.613 359.995 197.059 350.862 197.059Z" fill="white"/>
<path d="M475.109 167.941L458.615 156.078L475.109 167.941ZM460.618 156.116C459.948 156.091 459.259 156.071 458.544 156.078C445.038 156.078 434.083 167.027 434.083 180.539C434.083 194.051 445.032 205 458.544 205C458.563 205 458.583 205 458.602 205C468.289 205 473.563 202.405 475.116 201.761V181.505H466.344V196.312C463.915 196.879 461.545 197.194 459.033 197.194C449.927 197.194 442.127 190.206 442.127 180.539C442.127 170.872 450.352 163.813 459.69 163.813C465.21 163.813 470.253 165.59 475.103 167.948V159.24C473.608 158.641 468.566 156.445 460.611 156.116" fill="white"/>
<path d="M41.0199 167.941L24.5256 156.078L41.0199 167.941ZM26.5287 156.116C25.8588 156.091 25.1697 156.071 24.4548 156.078C10.9489 156.078 0 167.027 0 180.532C0 194.038 10.9489 204.994 24.4612 204.994C24.4806 204.994 24.4999 204.994 24.5192 204.994C34.2058 204.994 39.4806 202.398 41.0328 201.754V181.499H32.2607V196.305C29.8327 196.872 27.4625 197.188 24.9507 197.188C15.8438 197.188 8.04425 190.2 8.04425 180.532C8.04425 170.865 16.2688 163.806 25.6076 163.806C31.1272 163.806 36.1702 165.584 41.0199 167.941V159.24C39.5257 158.641 34.4827 156.445 26.5287 156.116Z" fill="white"/>
<path fill-rule="evenodd" clip-rule="evenodd" d="M262.844 46.6405C262.805 46.0538 262.268 43.5569 261.737 42.6431C261.206 41.7324 261.03 40.8858 260.921 40.3755C260.812 39.8651 260.414 38.9085 260.414 38.5723C260.414 38.2362 260.038 37.6372 259.686 37.081C259.334 36.5247 259.31 36.2589 258.937 35.9257C258.561 35.5926 258.23 34.7705 258.364 34.034C258.497 33.3005 258.74 33.4319 258.961 33.0774C259.183 32.7229 259.513 32.7443 260.066 33.2333C260.618 33.7223 260.794 33.7895 261.212 33.8995C261.631 34.0095 261.919 34.1226 262.162 34.5016C262.404 34.8805 263.266 35.012 263.066 34.523C262.865 34.034 262.604 33.6092 263.153 33.3678C263.706 33.1233 264.655 33.4136 264.655 32.8788C264.655 32.344 263.684 32.7901 263.551 32.2125C263.417 31.6349 263.86 31.4791 263.596 31.0329C263.332 30.5867 263.551 30.0549 262.513 29.9418C261.476 29.8318 261.679 28.9822 262.116 28.5391C262.38 28.2732 263.02 27.9156 263.287 28.1846C263.551 28.4504 263.639 28.1846 263.839 28.2304C264.039 28.2762 263.994 28.6766 264.282 28.4749C264.57 28.2732 264.767 28.3863 265.031 28.1204C265.295 27.8545 265.407 27.7873 265.805 27.7873C266.202 27.7873 266.366 27.9064 266.29 28.1204C266.157 28.4993 265.277 28.6766 265.295 29.0556C265.316 29.4559 265.429 29.4559 265.471 29.7004C265.516 29.9449 265.814 30.8434 266.15 31.0145C266.487 31.1857 266.815 31.0359 266.678 30.8037C266.542 30.5714 266.351 30.55 266.351 29.6882C266.351 28.8263 266.824 28.1907 267.024 28.0317C267.224 27.8728 267.552 27.8209 267.71 27.6283C267.867 27.4358 268.08 27.2983 268.247 27.3533C268.416 27.4052 268.319 27.6283 268.025 27.9706C267.731 28.3099 267.519 28.5238 267.519 29.0311C267.519 29.5384 267.394 29.8074 267.737 29.6576C268.08 29.5079 268.456 29.4742 268.626 29.0433C268.796 28.6124 268.829 28.3863 269.193 28.319C269.557 28.2548 269.557 28.5024 269.772 28.1479C269.988 27.7903 270.458 27.6497 270.655 27.8698C270.852 28.0898 270.882 28.3099 270.546 28.7255C270.209 29.1411 269.369 29.7248 269.687 30.0641C270.003 30.4033 270.679 29.9327 270.928 29.6026C271.18 29.2725 271.68 28.9333 271.962 28.4627C272.244 27.992 272.627 27.7842 273.039 27.4419C273.452 27.1027 273.528 26.9499 273.497 26.4426C273.464 25.9383 273.497 25.7641 273.606 25.5104C273.716 25.2568 273.749 24.8625 273.464 24.5447C273.182 24.2269 273.039 23.8754 272.897 23.579C272.754 23.2825 272.778 23.1175 272.32 22.9769C271.862 22.8333 271.374 22.5704 270.852 22.3626C270.33 22.1548 269.481 22.0876 268.774 22.4818C268.068 22.8761 267.916 23.0839 267.567 23.0533C267.218 23.0197 267.819 22.494 268.307 22.2098C268.796 21.9256 269.396 21.6842 269.733 21.5833C270.07 21.4855 270.197 21.568 270.467 21.5436C270.737 21.5191 270.958 21.4763 271.732 21.5986C272.505 21.7239 275.102 22.3443 276.512 24.78C276.755 25.1987 276.525 25.5257 276.279 25.92C276.033 26.3142 276.267 27.0141 276.2 27.3625C276.133 27.7109 275.784 27.8698 275.505 27.9034C275.226 27.937 274.286 27.4755 274.149 27.61C274.016 27.7445 274.162 28.0837 274.058 28.3557C273.958 28.6277 273.934 28.7163 273.713 28.8416C273.488 28.9669 273.118 29.08 272.972 29.3275C272.827 29.5751 272.76 29.8471 272.536 29.9816C272.311 30.116 272.011 30.2199 272.032 30.3758C272.053 30.5347 272.166 30.4889 272.223 30.6142C272.278 30.7395 272.502 30.5806 272.827 30.7486C273.151 30.9167 273.397 31.0084 273.676 30.7364C273.955 30.4644 274.392 30.2169 274.629 29.9816C274.862 29.7432 275.199 29.2603 275.581 29.3275C275.96 29.3948 276.118 30.2963 276.118 30.4767C276.118 30.657 275.972 30.8953 275.96 31.0512C275.948 31.2101 275.96 31.2651 276.073 31.2651C276.185 31.2651 276.164 31.5249 276.252 31.5035C276.343 31.4821 276.485 31.1643 276.576 30.9381C276.667 30.712 276.855 30.657 276.967 30.7578C277.08 30.8587 277.277 30.9595 277.277 31.3477C277.277 31.6135 277.565 31.6624 277.771 31.6135C277.974 31.5646 278.011 30.9962 277.929 30.3391C277.844 29.6851 277.917 29.5995 278.217 29.5017C278.517 29.404 278.611 29.5262 278.772 29.951C279.109 30.8373 279.749 30.7762 279.758 31.1521C279.77 31.528 279.661 31.5402 279.494 31.8427C279.324 32.1453 279.218 32.3653 278.772 32.5457C278.326 32.729 278.099 32.5946 277.868 33.2975C277.641 34.0004 277.568 34.0126 277.074 34.3518C276.579 34.6911 276.567 34.9692 276.761 35.4551C276.955 35.941 276.834 36.1824 277.025 36.1824C277.216 36.1824 277.331 35.9166 277.277 35.2717C277.24 34.8347 277.601 34.908 277.65 35.067C277.698 35.2259 277.832 35.9043 278.035 35.8677C278.238 35.831 278.205 35.7332 278.372 35.6385C278.542 35.5407 278.505 35.1648 278.348 34.8744C278.19 34.5841 278.433 34.3152 278.611 34.2571C278.793 34.196 278.997 34.4282 279.142 34.7186C279.288 35.0089 279.528 35.1067 279.625 34.8653C279.722 34.6238 279.588 34.3793 279.901 34.5505C280.213 34.7216 280.489 34.6483 280.407 35.18C280.322 35.7149 279.697 35.6048 279.54 35.8341C279.382 36.0633 279.406 36.2069 279.406 36.8059C279.406 37.3285 278.924 37.8847 278.924 38.9299C278.924 39.4647 279.139 39.6206 279.261 40.0821C279.382 40.5435 279.549 40.8094 279.84 40.7239C280.128 40.6383 279.986 40.3235 279.986 40.0576C279.986 39.7917 280.046 39.5595 279.901 39.1469C279.755 38.7343 279.816 38.4073 279.876 38.2117C279.937 38.0161 279.828 37.5455 280.213 37.1329C280.598 36.7203 281.669 36.2466 282.091 36.3811C282.512 36.5156 282.549 37.194 282.379 38.0314C282.209 38.8688 282.091 39.1836 281.884 39.645C281.681 40.1065 281.763 40.2165 281.608 40.568C281.451 40.9195 281.114 41.3198 281.102 41.928C281.09 42.5331 280.981 43.2268 280.874 43.6761C280.765 44.1253 280.85 44.4523 281.044 45.0361C281.238 45.6198 280.841 46.4083 280.768 46.8545C280.695 47.3037 280.738 47.5268 281.002 47.9822C281.266 48.4375 281.278 48.6515 281.278 49.2719C281.278 49.8923 281.442 49.9931 281.138 50.7144C280.838 51.4356 280.686 51.3989 280.686 52.1813C280.686 52.9637 280.468 53.1929 280.811 53.5993C281.038 53.8652 281.715 54.232 281.639 55.0418C281.563 55.8517 281.123 56.6096 281.287 57.1811C281.451 57.7496 281.551 58.1927 281.351 58.8773C281.15 59.5618 280.471 59.7391 280.583 60.4084C280.695 61.0777 281.16 61.964 281.411 62.7861C281.663 63.6082 281.223 64.2286 281.135 64.849C281.047 65.4694 280.996 65.7841 280.971 65.9492C280.947 66.1142 280.871 66.594 281.023 67.0127C281.175 67.4314 281.123 69.2131 280.947 69.8335C280.771 70.4539 280.547 72.4893 280.507 73.6292C280.471 74.7692 280.356 75.2979 280.28 76.0069C280.204 76.7159 280.216 78.1462 280.243 78.6627C280.271 79.1792 280.143 79.5978 280.155 80.1571C280.168 80.7133 279.779 82.003 279.779 82.929C279.779 83.855 280.107 84.0934 280.107 85.3342C280.107 86.575 279.603 87.2443 279.603 89.4325C279.603 90.1904 279.716 90.5082 279.755 91.0644C279.791 91.6207 279.679 91.7612 279.855 92.9867C280.031 94.2153 279.943 94.8968 279.855 95.6823C279.767 96.4677 279.779 97.3784 279.892 98.1486C280.004 98.9218 279.879 99.3374 279.74 99.9578C279.6 100.578 279.828 100.908 280.316 101.956C280.805 103.008 280.832 103.488 280.756 104.576C280.68 105.664 280.419 106.342 280.68 107.424C281.129 109.273 280.95 110.141 280.759 110.865C280.568 111.586 281.517 111.907 281.539 112.882C281.56 113.86 281.73 114.328 282.151 114.856C282.573 115.388 282.637 116.152 282.7 116.598C282.764 117.045 283.395 117.894 283.522 118.68C283.65 119.465 284.745 120.911 285.294 121.928C285.843 122.949 286.981 123.967 287.633 124.392C288.285 124.816 288.625 125.858 289.046 127.429C289.468 129 291.006 130.699 291.091 132.634C291.206 135.293 289.198 135.455 287.803 135.968C285.843 136.689 282.343 137.071 281.29 136.989C280.237 136.903 279.373 136.692 277.074 136.671C274.774 136.65 273.173 135.864 270.664 135.143C268.156 134.422 267.713 134.74 267.185 134.932C266.657 135.125 265.52 134.996 264.382 134.975C263.244 134.954 261.788 134.083 260.821 133.615C259.85 133.147 259.365 133.743 257.848 133.765C256.331 133.786 255.931 133.425 255.361 133.169C254.791 132.915 254.581 132.405 254.875 132.023C255.17 131.641 255.488 131.13 255.003 130.962C254.518 130.791 254.411 131.112 254.287 132.151C254.16 133.193 253.695 133.636 252.685 134C251.672 134.361 251.757 133.575 251.612 133.022C251.463 132.469 249.737 132.958 248.997 133.597C248.26 134.232 247.122 134.361 245.897 134.575C244.674 134.785 243.367 134.871 243.261 133.471C243.155 132.069 244.04 131.136 244.419 130.923C244.799 130.709 244.841 130.265 245.326 129.541C245.812 128.82 245.053 128.841 244.884 128.374C244.714 127.906 244.504 127.481 244.926 126.378C245.348 125.275 245.178 124.954 246.042 122.79C246.907 120.623 247.58 118.946 247.75 118.075C247.92 117.204 248.172 115.801 248.53 114.869C248.888 113.933 249.603 112.149 249.816 110.599C250.292 107.091 250.702 107.965 250.932 105.334C251.163 102.699 251.882 98.6009 252.428 98.5367C252.977 98.4725 252.87 102.656 252.236 104.845C251.681 106.764 251.857 110.049 251.287 111.767C250.911 112.9 250.635 113.677 250.359 114.444C250.086 115.208 250.316 115.718 250.043 116.461C249.77 117.204 249.558 118.096 249.306 118.86C249.054 119.624 249.349 119.795 249.136 120.199C248.927 120.602 248.336 121.219 248.945 121.259C249.558 121.302 249.597 119.985 250.083 119.221C250.568 118.457 250.526 118.032 251.117 116.439C251.709 114.847 252.698 113.976 252.867 112.002C253.037 110.028 253.331 106.055 254.047 106.055C254.763 106.055 254.257 109.878 254.384 110.642C254.511 111.406 254.363 112.977 254.636 113.701C254.909 114.422 254.572 114.933 254.7 115.975C254.827 117.017 255.312 117.885 255.415 118.799C255.522 119.713 255.858 121.326 256.659 122.005C257.46 122.683 257.754 123.258 257.545 124.129C257.336 125 256.322 125.446 255.458 125.657C254.593 125.868 255.057 126.739 254.827 127.738C254.687 128.337 255.691 128.374 256.219 127.845C256.747 127.313 256.641 127.802 256.914 127.995C257.187 128.187 257.672 127.866 258.158 127.909C258.643 127.952 258.77 128.398 259.171 128.759C259.571 129.119 260.223 129.205 260.605 129.801C260.851 130.186 261.197 130.715 261.977 130.926C262.756 131.136 262.799 131.647 263.472 131.986C264.145 132.325 264.379 131.69 263.536 131.158C262.692 130.626 262.483 130.076 262.356 129.712C262.228 129.352 262.186 129.077 261.47 128.459C260.754 127.842 260.942 127.014 261.155 126.589C261.364 126.164 262.189 126.185 262.292 126.864C262.398 127.542 262.905 128.288 263.451 128.649C264 129.009 264.379 129.266 265.159 130.305C265.938 131.347 266.93 131.494 267.203 132.026C267.476 132.558 267.919 133.511 268.89 133.45C269.86 133.386 270.491 133.557 271.82 133.811C273.148 134.064 273.358 133.682 274.959 133.704C276.561 133.725 276.582 134.553 277.762 134.489C278.942 134.425 279.279 134.278 279.154 133.618C279.027 132.961 279.324 132.661 279.703 132.536C280.083 132.408 280.483 132.24 280.653 131.454C280.823 130.669 281.769 129.223 282.74 129.119C283.711 129.012 283.774 130.223 283.353 131.583C282.931 132.943 284.09 133.068 284.787 133.153C285.485 133.239 286.747 133.218 286.559 132.347C286.368 131.476 284.894 132.282 284.536 131.476C284.178 130.669 284.851 130.265 284.83 129.587C284.809 128.909 283.565 128.78 283.395 127.995C283.225 127.209 283.647 126.528 283.544 125.553C283.462 124.792 283.753 124.618 283.65 123.643C283.541 122.637 283.313 121.711 282.955 121.348C282.227 120.614 282.512 122.112 282.534 123.982C282.555 125.852 281.542 128.273 280.617 129.165C279.688 130.058 278.848 130.097 278.257 129.801C277.441 129.394 277.155 129.593 276.886 129.483C276.264 129.229 276.506 128.462 276.4 127.934C276.294 127.402 276.273 126.723 276.528 126.192C276.779 125.66 276.992 124.832 277.435 122.772C277.877 120.712 277.814 119.459 277.877 116.889C277.941 114.319 277.583 113.683 277.307 112.959C277.034 112.237 276.992 111.791 277.013 110.645C277.034 109.499 276.57 108.542 276.822 106.972C277.074 105.401 276.737 104.615 276.528 104.273C276.318 103.934 276.127 104.019 276.212 105.058C276.297 106.098 275.621 106.418 275.496 107.033C275.369 107.65 276.066 107.84 275.539 109.2C275.075 110.394 274.21 110.92 273.788 110.41C273.367 109.899 272.587 109.878 273.073 110.856C273.461 111.635 274.759 112.98 275.053 114.594C275.348 116.207 274.883 116.803 274.547 117.482C274.21 118.16 274.926 118.246 275.138 119.181C275.423 120.449 274.253 120.541 274.717 122.026C274.971 122.845 274.926 123.683 275.011 124.66C275.096 125.638 274.968 126.656 274.589 128.102C274.21 129.547 273.619 130.479 273.239 130.268C272.86 130.058 272.86 128.484 273.112 127.466C273.364 126.445 273.027 125.256 272.481 124.535C271.932 123.814 272.272 121.858 271.85 121.858C271.428 121.858 271.177 123.768 271.765 125.385C272.357 126.998 272.608 127.976 271.975 128.273C271.344 128.569 271.131 127.295 270.667 127.552C270.203 127.805 270.582 128.826 271.089 129.462C271.595 130.097 272.059 131.289 271.638 131.671C271.216 132.053 270.71 131.375 269.781 130.525C268.853 129.676 268.01 130.1 267.124 128.783C266.238 127.466 267.588 127.762 267.546 126.063C267.503 124.364 268.219 125.299 268.768 124.578C269.317 123.857 268.683 123.05 268.896 122.158C269.105 121.265 269.402 119.823 269.023 119.227C268.644 118.631 268.35 117.824 268.474 116.635C268.601 115.446 267.967 114.172 267.925 112.812C267.883 111.452 266.111 109.71 266.66 108.692C267.209 107.671 268.134 107.632 268.262 106.101C268.389 104.573 267.276 104.239 267.925 101.642C268.726 98.4358 267.716 96.5869 268.031 94.0381C268.268 92.1402 267.252 90.5541 267.294 90.0468C267.336 89.5364 267.907 89.5364 268.159 90.2179C268.41 90.8964 268.853 92.0882 269.193 92.6383C269.53 93.1915 269.32 93.9128 269.866 95.1444C270.415 96.376 271.004 95.2513 270.497 94.1022C269.991 92.9562 270.412 92.9776 270.118 91.746C269.824 90.5143 268.623 89.133 268.159 88.2406C267.694 87.3482 267.946 84.8727 267.021 82.5714C266.072 80.2152 266.636 76.3461 266.029 73.6078C265.501 71.2302 265.774 68.5347 265.101 68.4674C264.679 68.4246 264.861 69.8549 264.679 72.1837C264.5 74.488 265.037 75.7624 264.87 76.5814C264.6 77.8864 265.043 78.2684 265.092 78.9866C265.14 79.7048 264.822 79.7659 264.807 80.8508C264.792 81.9327 265.234 82.4584 265.186 83.0818C265.137 83.7022 265.708 84.4204 265.629 85.0561C265.55 85.6918 265.422 86.1869 265.629 87.2229C265.835 88.2589 266.229 89.1177 266.229 89.7717C266.229 91.2386 266.781 91.8743 266.781 94.472C266.781 96.2232 266.545 96.6388 266.545 97.7207C266.545 98.8026 267.018 98.4389 266.909 99.5849C266.8 100.731 266.481 101.147 266.229 102.1C265.978 103.057 266.229 103.524 266.281 104.533C266.36 106.125 264.952 106.119 264.679 106.742C264.343 107.506 264.006 108.695 264.236 110.272C264.428 111.58 265.037 111.614 265.374 112.201C265.926 113.157 265.674 113.872 266.147 114.878C266.621 115.88 267.176 116.009 267.127 116.95C267.079 117.891 266.605 117.842 266.733 119.037C266.86 120.232 267.176 120.232 266.875 121.125C266.575 122.017 266.402 122.876 265.674 122.812C264.946 122.747 265.058 121.775 264.582 121.791C264.109 121.806 264.091 122.683 264.455 123.383C264.819 124.083 265.705 126.402 265.025 126.745C264.519 126.998 264.191 126.066 263.839 125.376C263.524 124.755 263.16 124.627 263.047 123.863C262.938 123.099 262.131 123.401 261.955 122.093C261.782 120.788 262.18 120.917 261.685 119.927C261.512 119.575 261.212 119.545 261.194 118.796C261.179 118.047 261.258 118.059 261.027 117.176C260.857 116.525 260.939 116.048 261.139 115.058C261.34 114.068 261.185 113.46 261.364 112.063C261.543 110.666 261.631 108.573 261.543 107.714C261.455 106.859 261.722 106.431 261.676 106.003C261.631 105.575 261.564 105.055 261.564 104.56C261.564 104.065 261.297 103.592 261.297 102.669C261.297 101.746 261.364 101.385 261.922 100.664C262.48 99.9425 262.325 98.8178 262.101 98.0721C261.876 97.3295 261.876 96.4952 261.876 95.887C261.876 95.2788 261.54 94.851 261.585 94.197C261.631 93.543 261.385 92.6659 260.96 91.2448C260.536 89.8267 260.602 87.2809 259.774 87.3268C258.946 87.3726 259.55 91.3578 259.617 92.5742C259.683 93.7905 259.662 94.9855 259.683 97.5984C259.705 100.211 259.617 101.089 259.08 101.877C258.543 102.666 258.185 103.5 258.722 104.49C259.259 105.48 258.81 105.685 258.252 106.36C257.693 107.036 258.206 107.509 258.901 107.778C259.592 108.047 259.617 109.67 259.662 110.572C259.708 111.473 259.462 111.519 259.058 111.608C258.655 111.696 258.5 112.127 258.388 113.726C258.276 115.324 259.328 116.968 259.662 117.576C259.999 118.185 260.041 119.334 260.041 119.85C260.041 120.367 260.02 120.526 260.399 121.855C260.666 122.793 261.919 122.891 261.831 123.881C261.779 124.465 261.139 124.737 261.139 125.119C261.139 125.501 260.781 125.929 260.536 126.02C260.29 126.109 259.999 126.629 259.932 126.763C259.865 126.898 259.195 127.484 258.591 126.561C257.988 125.638 258.279 124.804 258.704 123.273C259.128 121.742 257.787 121.357 257.072 121.021C256.356 120.681 256.356 119.804 256.714 119.376C257.072 118.949 257.05 118.521 256.714 118.249C256.377 117.98 256.513 117.439 256.447 116.605C256.38 115.77 256.289 115.657 256.201 114.847C256.113 114.037 255.776 113.044 255.864 112.46C255.952 111.874 256.043 111.537 255.843 110.682C255.643 109.826 256.068 108.631 256.268 108.069C256.468 107.506 256.201 105.929 256.134 105.117C256.068 104.307 256.247 103.833 255.977 102.886C255.71 101.938 255.752 101.22 255.864 100.474C255.977 99.7316 256.31 99.0104 256.18 98.5489C255.974 97.8307 256.237 97.3754 256.128 95.7067C256.019 94.0381 256.001 93.9739 256.168 92.238C256.331 90.5052 255.952 91.1928 256.192 89.1024C256.432 87.012 256.647 85.6092 256.395 84.1179C256.143 82.6265 255.94 81.3398 256.052 80.2182C256.11 79.6559 256.058 77.4494 256.353 75.4262C256.705 73.0058 256.444 71.4991 256.198 71.4777C255.503 71.4135 255.649 73.3481 255.376 74.9831C255.033 77.0246 255.061 82.5653 254.891 82.9474C254.548 83.7114 254.014 82.9871 253.95 82.4248C253.887 81.8624 253.877 79.7751 253.877 78.8705C253.877 77.9659 254.202 77.1254 254.178 76.2697C254.154 75.4171 254.178 74.5858 254.178 73.6934C254.178 72.801 254.102 72.7124 254.254 71.7314C254.405 70.7503 254.445 69.6929 254.445 68.5071C254.445 67.3214 254.648 67.6545 254.572 66.5818C254.496 65.5121 254.357 65.0507 254.345 64.2866C254.332 63.5226 254.445 63.1528 254.46 62.5018C254.472 61.8509 254.408 61.3038 254.499 60.0539C254.587 58.8039 254.487 58.5747 254.436 58.0002C254.384 57.4256 254.448 56.9427 254.336 56.0748C254.22 55.2069 254.096 54.8126 254.032 53.8958C253.968 52.9789 253.856 52.9148 253.614 51.4723C253.374 50.0328 252.449 48.5262 251.299 47.05C250.146 45.5709 249.691 46.0049 247.338 45.1522C244.984 44.2995 242.53 43.7128 241.277 43.4071C239.73 43.0282 239.442 43.9175 237.076 43.4958C235.911 43.288 235.52 43.2666 234.458 43.7647C233.396 44.2629 232.75 44.0184 232.268 43.8931C231.786 43.7647 231.282 43.8533 230.596 44.0092C229.914 44.162 229.42 44.0734 228.889 43.8442C228.321 43.5997 228.067 43.5752 227.572 43.9083C226.859 44.3882 225.573 44.4309 224.727 44.1895C223.881 43.9481 223.893 43.3216 224.36 42.0747C224.827 40.8247 224.967 40.4824 224.903 39.7673C224.839 39.0522 224.499 40.0974 223.814 40.0974C223.441 40.0974 223.271 39.9965 223.068 39.4097C222.864 38.8229 222.74 38.2362 222.74 37.8939C222.74 37.5516 222.652 37.3316 222.549 36.7081C222.449 36.0847 222.373 35.6385 222.373 35.2412C222.373 34.8439 222.373 34.2601 222.285 33.6856C222.197 33.111 222.185 32.5884 222.234 31.9772C222.285 31.366 222.397 30.9076 222.725 30.9198C223.062 30.932 223.274 31.1307 223.274 31.6196C223.274 32.1086 223.313 32.7199 223.456 33.1997C223.599 33.6795 223.456 34.1837 223.835 35.1648C224.214 36.1488 225.121 36.5614 225.585 35.8157C226.046 35.07 225.858 34.6147 226.31 33.5847C226.762 32.5548 226.532 31.6288 227.096 31.0695C227.66 30.5072 228.237 29.8715 228.667 28.9119C229.095 27.9523 229.31 27.4266 229.714 27.066C230.117 26.7054 230.672 25.7885 230.86 25.324C231.048 24.8595 231.285 24.835 232.022 23.7593C232.759 22.6805 234.021 21.9134 235.162 21.9134C236.302 21.9134 237.707 22.7294 238.659 23.472C239.612 24.2146 239.481 24.5294 240.291 24.8962C241.098 25.2629 241.583 25.648 241.75 26.0758C242.038 26.8124 241.386 27.0752 241.908 27.5489C242.43 28.0226 243.792 28.3771 244.165 29.1075C244.653 30.0641 244.192 31.8122 245.032 32.0292C245.872 32.2492 246.604 31.5096 247.228 32.2217C247.853 32.9307 247.608 34.3793 248.475 34.3793C249.343 34.3793 248.639 32.6037 248.205 31.8672C247.771 31.1307 247.744 30.1191 248.612 30.7211C249.479 31.3232 250.374 32.2248 251.484 34.2999C252.594 36.375 253.453 39.1988 254.214 39.1988C254.976 39.1988 253.301 35.2014 253.301 34.2174C253.301 33.2333 253.735 33.5603 254.032 34.0798C254.329 34.5994 254.575 35.993 255.224 35.993C255.873 35.993 254.872 34.0248 254.572 33.5633C254.275 33.0988 254.329 32.3623 254.842 32.6893C255.358 33.0163 256.335 34.2449 257.066 35.2564C257.797 36.268 257.748 36.2589 258.206 36.9343C258.479 37.3377 258.5 37.6769 258.819 38.1017C259.134 38.5265 258.925 38.9513 259.325 39.6084C259.726 40.2654 259.79 40.4794 260.211 41.4145C260.633 42.3497 261.139 45.1675 261.813 46.2555C262.656 47.6154 262.908 47.701 262.841 46.668L262.844 46.6405ZM211.498 0.865803C211.459 1.1653 212.02 1.51676 211.486 1.74291C211.131 1.89266 210.303 1.18058 210.045 1.09807C209.621 0.960543 209.412 0.923869 209.29 1.13169C209.142 1.38534 209.815 1.84071 210.07 2.17077C210.504 2.73615 210.585 3.21902 210.585 4.59123C210.585 5.96343 209.9 6.81609 209.648 7.02391C209.396 7.23172 209.557 7.41509 209.751 7.48538C209.891 7.53428 209.888 7.93463 209.888 8.85758C209.888 9.78054 209.669 10.2298 209.43 10.5629C209.19 10.896 209.063 11.1497 208.856 11.5439C208.65 11.9382 208.341 12.0971 208.089 12.5463C207.837 12.9956 208.18 13.5946 208.374 13.8941C208.568 14.1936 208.947 15.1502 209.06 15.578C209.175 16.0059 209.187 16.5224 209.712 17.3536C210.064 17.9098 210.789 18.1941 212.163 18.4722C213.537 18.7503 214.053 19.2668 214.565 19.6029C215.081 19.9361 215.457 20.0308 216.224 20.3059C216.992 20.584 217.838 21.1004 218.33 21.3908C218.821 21.6781 220.401 22.4849 221.454 22.9586C222.507 23.4323 222.622 23.5453 222.746 24.1016C222.874 24.6547 222.564 25.6235 222.494 26.2592C222.425 26.8949 222.437 28.0929 222.416 28.6124C222.391 29.132 222.337 29.5568 222.77 29.5568C223.204 29.5568 223.113 28.6216 223.15 28.2182C223.183 27.8148 223.459 27.7445 223.677 27.7445C223.896 27.7445 224.032 28.2976 224.135 28.8752C224.239 29.4529 224.411 30.4094 224.606 31.0329C224.8 31.6563 224.684 32.0261 224.697 32.5426C224.709 33.0621 225.349 33.108 225.522 32.7046C225.695 32.3012 225.877 32.347 226.116 31.6899C226.356 31.0329 226.174 30.8373 226.265 30.3636C226.356 29.8899 226.368 29.7401 226.277 29.2695C226.186 28.7958 226.174 28.588 226.253 28.1632C226.332 27.7353 226.459 27.2188 226.492 26.6412C226.526 26.0636 226.629 25.2812 226.938 24.6914C227.515 23.5973 227.648 23.2397 227.772 22.4788C227.9 21.7178 228.012 21.5436 228.412 20.5412C228.813 19.5388 228.528 19.0987 228.185 18.4538C227.842 17.809 227.9 17.4514 226.617 16.9441C225.334 16.4368 224.26 17.2772 224.029 17.5553C223.802 17.8334 223.605 17.1825 223.462 17.1152C223.319 17.048 223.274 17.1703 223.274 17.3934C223.274 17.6165 223.219 17.9465 222.943 18.0138C222.667 18.081 222.582 17.7631 222.212 17.3017C221.842 16.8433 221.636 16.8983 221.126 17.0511C220.617 17.2039 219.965 17.4667 219.476 17.3781C218.988 17.2894 218.921 17.0602 218.976 16.9074C219.03 16.7546 219.552 16.9197 219.661 16.7638C219.77 16.611 219.325 16.4796 219 16.501C218.675 16.5224 218.327 16.6752 217.687 16.6324C217.046 16.5896 216.352 16.2595 215.645 15.9753C214.938 15.6911 214.417 15.5811 213.928 15.3946C213.452 15.2143 213.406 14.9576 213.285 14.762C213.164 14.5664 212.854 14.4442 212.766 14.2822C212.678 14.1233 212.56 13.9644 212.421 13.8024C212.281 13.6404 212.56 13.179 212.909 13.179C213.889 13.179 213.922 13.9124 214.153 14.2517C214.383 14.5909 214.711 14.6245 215.132 14.7712C215.554 14.9209 216.227 15.089 216.503 14.9821C216.776 14.8751 217.438 14.8293 218.366 14.8507C219.039 14.8659 219.264 15.1104 219.98 15.1746C220.696 15.2388 220.677 15.3885 221.193 15.5016C221.709 15.6147 221.478 15.1135 221.163 15.0065C220.847 14.8996 220.741 14.6245 221.078 14.4534C221.415 14.2822 221.87 14.1264 224.408 13.7382C228.795 13.0659 229.341 14.053 233.023 14.0988C236.706 14.1447 238.565 13.5915 238.325 13.0506C238.089 12.5127 236.587 13.2615 233.202 12.6625C229.817 12.0635 227.29 10.0739 224.187 8.53058C221.084 6.99029 219.152 6.40657 216.937 5.85035C215.882 5.58752 215.005 4.98241 214.756 4.09613C214.505 3.20985 214.859 3.18846 214.799 2.09437C214.738 1.00333 213.801 0.052872 212.466 0.000917742C211.865 -0.0204752 211.568 0.334036 211.498 0.865803ZM271.356 32.6893C271.183 32.8329 270.834 32.8971 270.297 33.0224C269.76 33.1508 269.381 33.4533 269.205 33.7864C269.032 34.1196 269.339 34.1073 269.475 33.979C269.633 33.8262 270.179 33.8598 270.725 33.6275C271.246 33.4075 271.689 33.5786 272.132 33.7375C272.575 33.8965 273.412 34.0248 273.697 33.8659C273.983 33.707 273.889 33.4992 273.825 33.4044C273.761 33.3097 273.634 33.1813 273.476 33.1324C273.318 33.0835 273.097 33.5633 272.496 33.4655C271.917 33.3739 271.944 33.0041 271.975 32.8115C272.005 32.619 271.99 32.4937 271.723 32.4937C271.723 32.4937 271.532 32.5426 271.359 32.6862L271.356 32.6893ZM270.449 35.6018C270.431 35.7149 270.318 35.8463 270.394 36.0694C270.44 36.2008 270.977 36.2741 271.125 36.268C271.274 36.2619 271.456 36.3322 271.532 36.1397C271.61 35.9471 271.225 35.6904 271.052 35.5193C270.879 35.3451 270.782 35.2014 270.649 35.2259C270.434 35.2626 270.473 35.4276 270.446 35.6048L270.449 35.6018ZM269.311 44.214C269.481 43.887 269.763 43.7953 269.881 43.4652C270 43.1351 270 42.7867 270.221 42.4995C270.443 42.2122 270.585 42.0074 270.691 41.6193C270.798 41.2281 270.81 40.6964 271.068 40.2991C271.322 39.9018 271.604 39.4953 271.823 38.9605C272.044 38.4257 272.448 38.282 272.906 38.1995C273.364 38.117 273.97 38.0192 274.441 38.2484C274.911 38.4776 275.053 39.6389 275.487 40.2563C275.79 40.6872 276.136 41.1914 276.47 41.4207C276.804 41.6499 276.946 41.818 277.155 42.0074C277.365 42.2 277.78 42.4567 277.996 42.0686C278.211 41.6774 277.562 41.4634 277.21 41.2159C276.858 40.9714 276.943 40.7055 276.84 40.3296C276.74 39.9507 276.685 39.8681 276.34 39.6817C275.994 39.4953 275.833 39.4433 275.69 39.1469C275.548 38.8535 275.578 38.3615 275.493 37.9764C275.429 37.6861 275.29 37.6647 275.29 37.4232C275.29 37.2857 275.42 37.1176 275.545 36.9984C275.669 36.8792 275.76 36.6989 275.793 36.5186C275.83 36.3383 276.066 36.0938 276.264 35.8004C276.461 35.507 276.467 35.3695 276.412 35.3023C276.358 35.2351 276.024 35.2075 275.83 35.2901C275.633 35.3726 275.575 35.5193 275.557 35.7332C275.539 35.9502 275.52 36.1886 275.433 36.3811C275.345 36.5736 275.123 36.9618 275.062 37.0657C275.002 37.1665 274.944 37.408 274.926 37.5699C274.908 37.7319 274.744 37.8603 274.568 37.7564C274.435 37.6769 274.562 37.5149 274.574 37.3193C274.61 36.7387 274.598 35.886 274.586 35.6171C274.574 35.3481 274.523 35.3053 274.383 35.287C274.007 35.2412 274.131 35.3665 273.594 35.6079C273.057 35.8463 272.46 36.0571 272.393 36.5308C272.345 36.864 272.663 36.8181 272.945 37.0076C273.23 37.2001 273.151 37.4691 273.009 37.4691C272.757 37.4691 272.678 37.3407 272.423 37.3407C272.169 37.3407 271.35 37.738 270.81 37.738C270.097 37.738 270.012 37.0443 269.593 36.974C269.023 36.8792 268.265 37.2124 268.486 36.6867C268.708 36.1611 269.387 35.6843 268.817 35.3634C268.389 35.125 268.641 36.1916 267.822 36.1916C267.285 36.1916 267.315 35.6354 266.906 35.0761C266.493 34.5199 266.275 34.4863 266.114 34.0554C265.971 33.6673 265.483 33.7681 265.198 34.1196C264.913 34.471 264.867 34.7889 265.007 35.122C265.149 35.4551 264.928 35.9807 265.086 36.3322C265.243 36.6837 265.735 37.0504 265.416 37.3346C265.101 37.6219 264.673 36.592 264.643 37.1757C264.628 37.463 264.879 37.7166 264.77 38.337C264.661 38.9574 265.022 38.9421 265.356 38.9727C265.686 39.0033 265.847 39.1163 266.163 38.3523C266.478 37.5883 266.636 37.0779 267.491 36.9495C268.344 36.8212 268.25 37.1085 267.964 37.411C267.679 37.7136 267.6 37.952 267.634 38.3829C267.664 38.8138 267.54 39.1622 266.86 39.5778C266.181 39.9934 265.547 41.7752 265.88 42.4445C266.211 43.1138 267.067 42.365 267.033 41.5674C267.003 40.7697 266.86 39.8804 267.84 39.3211C268.82 38.7649 269.296 38.2851 269.563 38.6212C269.86 38.991 269.514 39.1163 269.293 39.6573C269.072 40.1982 269.624 40.3113 269.023 40.6597C268.422 41.0111 268.122 41.3626 267.886 41.821C267.752 42.0777 267.224 42.5086 267.585 42.744C268.331 43.236 268.532 41.4848 269.102 42.1389C269.451 42.5361 268.201 43.0954 267.98 43.4774C267.758 43.8594 267.631 43.9542 267.33 44.0978C267.03 44.2415 266.918 44.4951 266.857 45.0391C266.794 45.5801 266.335 45.9957 266.572 47.0623C266.809 48.1289 267.352 47.4626 267.6 47.9058C267.852 48.3611 266.76 48.5537 266.997 49.223C267.233 49.8923 267.828 50.0603 268.152 49.7517C268.72 49.2168 268.911 48.4284 269.087 47.9669C269.26 47.5054 269.545 47.4107 269.736 46.8056C269.927 46.2004 269.957 45.7848 270.336 45.7848C270.716 45.7848 270.685 44.7824 271.049 44.8771C271.413 44.9719 271.65 45.3081 271.319 46.0874C270.989 46.8667 271.162 47.0287 270.749 47.6154C270.336 48.2053 269.754 48.2847 269.991 48.682C270.227 49.0793 270.164 49.877 269.739 50.5921C269.314 51.3072 268.504 51.6587 267.858 52.1538C267.209 52.6489 267.288 52.8231 267.164 53.2846C267.036 53.746 266.815 53.905 266.833 54.4642C266.863 55.5003 266.375 55.2772 266.311 56.1054C266.248 56.9336 266.12 58.6542 266.642 59.6413C267.164 60.6284 267.637 60.7874 267.937 61.4566C268.237 62.1259 268.253 62.5385 268.41 62.9542C268.568 63.3698 268.662 63.4156 268.41 63.9566C268.159 64.4975 268.489 64.7695 268.395 65.3104C268.301 65.8514 268.316 66.0439 267.922 66.2517C267.528 66.4595 267.258 66.9699 267.385 67.4956C267.512 68.0212 267.655 68.1312 268.08 67.6881C268.507 67.2419 269.487 66.3342 269.502 67.3855C269.517 68.4369 269.281 68.4521 269.724 69.0114C270.167 69.5676 270.619 70.0291 270.182 70.1727C269.612 70.3653 269.138 69.4545 268.947 69.0573C268.756 68.66 268.832 67.9326 268.234 68.1985C267.728 68.4216 268.186 69.4729 268.362 69.9496C268.535 70.4264 268.283 70.6984 268.11 70.9857C267.937 71.2729 268.268 72.5779 268.823 72.5932C269.375 72.6085 269.044 71.4624 269.423 71.3982C269.803 71.3341 269.748 71.6855 270.625 71.6855C271.747 71.6855 272.102 70.6587 272.569 71.1904C273.154 71.8597 272.584 72.1317 272.569 72.7368C272.554 73.3419 272.305 73.7392 272.605 74.1396C272.906 74.5369 272.963 74.6836 273 74.9831C273.079 75.6035 273.694 75.359 273.87 75.5668C274.043 75.7746 274.532 76.0375 274.841 75.8205C275.399 75.4262 274.404 75.0625 274.419 74.5033C274.438 73.889 273.767 73.8126 273.955 73.4C274.146 72.9844 274.183 72.8469 273.943 72.2417C273.707 71.6366 273.549 71.493 273.77 70.9184C273.992 70.3439 276.252 69.8732 276.552 69.6654C276.852 69.4576 277.486 69.0114 277.201 68.0885C276.916 67.1655 275.166 67.1747 274.941 67.6209C274.735 68.0243 275.011 68.3421 274.61 68.7669C274.219 69.1825 273.294 68.8953 273.197 68.5744C273.103 68.2565 272.666 67.9845 271.78 67.8562C270.895 67.7278 270.136 66.5971 269.93 66.1509C269.724 65.7047 268.832 65.344 269.266 64.9406C269.881 64.3661 270.482 65.3716 270.94 64.8459C271.398 64.3202 270.71 63.6662 271.21 63.4279C271.492 63.2934 271.532 64.2469 272.038 63.7549C272.545 63.2628 271.583 62.511 271.383 62.074C271.183 61.637 271.413 60.9279 271.962 61.4903C272.19 61.7256 272.718 61.5942 272.933 61.0838C273.148 60.5734 273.573 60.6284 273.882 60.9554C274.189 61.2825 273.406 62.2726 273.788 62.5171C274.389 62.8991 275.181 61.7837 275.56 60.8607C275.872 60.0997 277.298 61.2427 276.655 58.1835C276.437 57.1475 276.336 56.8725 276.336 56.2001C276.336 55.5278 276.103 55.3627 276.121 54.7087C276.139 54.0547 276.085 53.7063 275.888 53.2723C275.687 52.8353 276.212 52.1079 275.724 51.7809C275.235 51.4539 275.199 51.3072 275.199 50.8885C275.199 50.4699 274.856 50.0328 274.55 49.6875C274.243 49.3421 274.098 48.2847 274.025 47.8691C273.952 47.4504 274.513 47.267 274.604 47.5421C274.695 47.8141 274.695 48.5781 275.508 49.3452C276.321 50.1092 276.431 50.0176 276.719 49.8923C277.007 49.7639 277.55 49.7456 277.28 50.4943C277.01 51.24 276.864 52.1141 277.262 53.1318C277.659 54.1494 277.237 56.0229 278.047 55.7692C278.596 55.598 279.142 54.7087 278.975 53.9844C278.842 53.4129 278.326 53.8041 278.417 53.1654C278.508 52.5297 278.399 52.001 278.599 51.7106C278.8 51.4203 278.508 51.0383 278.781 50.6563C279.051 50.2743 279.197 49.9106 278.763 49.5652C278.329 49.2199 277.644 48.8929 277.48 48.5476C277.316 48.2022 276.882 48.1105 276.594 48.1105C276.306 48.1105 275.599 47.6185 275.311 46.8728C275.023 46.1271 275.184 45.525 275.238 45.1247C275.293 44.7243 275.275 44.324 275.005 43.887C274.735 43.4499 274.319 42.8326 274.337 42.2489C274.356 41.6651 274.319 41.3015 273.958 41.1395C273.597 40.9745 273.488 40.7942 273.434 40.5222C273.379 40.2502 273.054 40.2318 273.091 40.5222C273.127 40.8125 273.543 40.9225 273.164 41.5246C272.784 42.1266 272.405 42.1786 272.099 42.1786C271.793 42.1786 271.52 42.2519 270.961 43.0526C270.4 43.8533 270.382 44.0887 270.349 44.5074C270.312 44.926 270.042 45.143 269.627 45.2714C269.211 45.3997 268.723 46.7994 267.928 46.4908C267.309 46.2493 268.001 45.525 268.526 45.2164C269.05 44.9077 269.081 44.6571 269.317 44.1987L269.311 44.214ZM272.706 45.3356C272.663 46.4174 273.233 47.2243 273.464 47.2059C273.694 47.1845 273.694 46.995 273.591 46.3777C273.485 45.7604 273.74 45.8032 273.907 45.0177C274.077 44.2323 273.843 43.8289 273.779 43.5324C273.716 43.236 273.737 42.8509 273.464 42.8112C273.17 42.7684 272.748 44.2567 272.706 45.3386V45.3356ZM271.765 49.5011C271.28 49.7975 271.322 50.1398 271.092 50.4882C270.861 50.8366 270.47 51.4203 270.843 51.512C271.386 51.6495 271.471 51.1208 271.783 50.7388C272.272 50.1459 273.661 51.3775 273.376 52.0927C273.06 52.8842 272.478 51.5762 272.123 52.0438C271.659 52.6611 272.73 52.9789 272.745 53.6788C272.76 54.3787 272.065 54.7301 271.811 55.6378C271.559 56.5454 271.195 57.1506 270.876 57.6273C270.561 58.1041 270.057 60.1242 270.67 60.3656C271.165 60.5612 271.298 59.9622 271.413 59.2471C271.62 57.9574 271.568 57.8932 272.208 57.4409C272.681 57.1047 272.918 56.7747 272.957 56.3101C273.015 55.6286 273.752 55.3719 273.931 55.8945C274.08 56.3315 273.37 57.1933 273.294 57.8901C273.242 58.37 272.997 59.7574 273.455 59.7911C273.913 59.8216 274.104 59.5374 274.198 59.0576C274.292 58.5808 274.893 58.5167 275.114 57.9421C275.335 57.3675 275.041 56.0931 274.993 55.6744C274.947 55.2558 274.993 54.999 275.108 54.4184C275.223 53.8377 274.808 53.6513 274.738 52.8353C274.668 52.0224 274.253 52.1141 274.137 51.3928C274.022 50.6716 273.343 50.2957 273.279 49.8525C273.215 49.4094 273.406 48.7707 273.364 48.3245C273.321 47.8783 273.151 47.5971 272.963 47.6032C272.363 47.6246 272.894 48.8012 271.759 49.498L271.765 49.5011ZM268.692 57.5479C268.841 57.8779 269.132 58.046 269.363 57.9482C269.593 57.8504 269.839 57.6151 269.554 57.3431C269.266 57.0711 268.981 56.5516 269.269 56.1634C269.557 55.7753 268.938 55.4636 269.205 55.271C269.475 55.0785 269.175 54.9349 269.442 54.4917C269.712 54.0455 270.194 54.2045 270.115 54.8615C270.039 55.5186 269.9 56.3529 270.343 56.4507C270.785 56.5485 270.67 55.8639 270.879 55.1855C271.092 54.507 271.462 54.0211 271.068 53.3579C270.688 52.7222 270.816 51.9979 270.167 51.9918C269.745 51.9888 269.454 52.3891 269.281 53.0859C269.108 53.7827 268.48 53.7033 268.365 54.1678C268.25 54.6323 267.895 55.268 267.801 56.1573C267.737 56.7808 268.413 56.9214 268.689 57.5387L268.692 57.5479ZM267.846 58.48C267.088 59.0331 269.172 59.6658 268.984 61.0074C268.856 61.9212 269.199 63.7396 269.869 63.3423C270.986 62.6852 269.954 62.1626 269.954 61.5789C269.954 60.9952 269.411 61.038 269.639 60.1975C269.912 59.1768 268.629 57.9085 267.846 58.4769V58.48ZM277.183 44.6785C276.825 44.7824 276.879 45.5098 276.576 45.8796C276.273 46.2493 276.297 46.9278 276.855 46.9278C277.413 46.9278 277.565 46.2493 278.12 46.2493C278.675 46.2493 278.854 46.0324 278.954 45.14C279.054 44.2476 278.778 43.6914 278.372 43.5997C277.968 43.508 278.032 43.0679 277.638 43.2604C277.259 43.4438 277.814 44.4921 277.183 44.6785ZM272.86 70.2614C273.561 69.7418 272.693 69.3934 272.084 69.2039C271.471 69.0145 271.195 68.3299 270.882 68.5683C269.972 69.2589 272.163 70.7809 272.863 70.2614H272.86ZM270.027 75.4782C269.775 76.6242 270.47 77.1193 271.228 77.6541C271.987 78.189 272.129 77.3669 271.701 76.8534C271.274 76.337 271.48 75.6707 271.259 74.9067C271.037 74.1427 271.438 72.6238 270.879 72.9966C269.742 73.7606 270.279 74.3321 270.027 75.4782ZM274.532 63.8924C271.932 64.0421 272.351 66.5084 273.91 66.6551C275.436 66.7988 273.154 65.0812 274.492 65.014C275.393 64.9681 275.202 66.3862 276.188 66.4473C277.177 66.5084 276.039 65.5396 276.458 64.6411C276.876 63.7426 276.767 62.9511 275.797 62.7372C274.541 62.4621 276.458 63.7824 274.529 63.8924H274.532ZM263.448 25.5685C262.941 25.865 262.683 26.0881 262.513 26.3906C262.307 26.7573 262.829 26.7726 263.335 26.4976C263.842 26.2225 263.906 25.9658 264.242 25.6052C264.579 25.2446 264.685 24.8014 264.452 24.7556C264.242 24.7128 263.951 25.2721 263.448 25.5685ZM299.909 31.0298C299.845 30.2658 299.308 30.8709 299.278 31.6044C299.247 32.3378 298.865 32.8146 298.741 33.6275C298.613 34.4405 298.441 35.125 298.155 35.125C297.87 35.125 297.54 34.0737 297.427 32.8146C297.318 31.5555 296.845 30.5011 296.448 30.5836C295.832 30.712 296.305 32.3348 295.911 34.8378C295.72 36.0541 295.04 37.1146 294.282 37.1787C293.523 37.2429 293.854 35.6018 293.666 35.2045C293.475 34.8072 293.223 35.397 293.287 36.0021C293.351 36.6073 292.938 38.8229 292.353 38.6946C291.767 38.5662 292.161 37.738 291.895 36.6562C291.625 35.5743 291.121 35.2075 290.645 34.8408C290.172 34.4741 289.871 33.4228 289.11 33.5817C288.352 33.7406 288.603 34.4894 288.652 35.3023C288.7 36.1152 288.558 38.0589 287.878 39.1561C287.199 40.2563 287.166 40.5588 287.166 41.2434C287.166 41.928 287.008 42.4872 286.58 42.9793C286.228 43.3857 286.453 44.5715 285.616 44.382C284.988 44.2384 285.109 43.236 285.252 42.7562C285.394 42.2794 285.443 41.6407 285.424 40.733C285.409 39.8254 285.676 39.3486 285.552 38.551C285.424 37.7533 285.525 37.3346 285.03 37.2276C284.508 37.1176 284.478 37.6249 284.114 37.9122C283.75 38.1995 283.577 38.389 283.465 39.0919C283.356 39.7917 282.834 40.3021 282.834 41.2251C282.834 41.9738 283.119 42.6737 282.77 43.8686C282.279 45.5617 281.948 45.9712 282.185 47.5788C282.321 48.5017 281.933 49.2994 281.933 49.9839C281.933 50.6685 281.175 52.2455 282.17 52.3249C283.392 52.4227 283.704 49.9687 284.715 49.3146C285.728 48.6606 285.537 48.4223 286.249 47.5451C286.962 46.668 287.608 46.8117 288.794 46.7322C289.981 46.6528 290.93 46.4938 292.161 45.7604C293.396 45.0269 293.836 45.3936 294.564 45.4089C295.292 45.4242 296.429 44.9474 297.142 44.8985C297.855 44.8496 298.422 44.6113 299.42 44.5471C300.415 44.4829 301.428 44.6754 302.378 44.4187C303.327 44.1651 303.992 44.0031 304.559 44.1956C305.129 44.3882 306.345 44.1956 306.567 43.8289C306.849 43.3613 307.073 43.2238 307.437 42.7929C307.801 42.3619 308.165 41.167 308.196 39.7673C308.226 38.3645 307.801 37.7594 308.068 36.6286C308.338 35.4979 308.56 34.9233 308.748 34.4618C308.939 34.0004 308.842 33.6184 308.921 33.3005C309 32.9827 309.127 32.5365 308.984 31.3721C308.684 28.9303 309.063 28.7438 308.906 27.8209C308.62 26.1614 308.147 25.6694 307.689 25.8925C307.231 26.1156 307.768 27.1974 307.768 27.7231C307.768 28.2487 307.498 28.0104 307.216 27.4358C306.931 26.8612 306.33 27.0538 306.424 27.9462C306.518 28.8386 305.966 29.0922 305.554 29.4437C305.141 29.7951 305.347 31.0054 305.017 31.4516C304.686 31.8978 304.686 32.6618 305.445 32.5029C306.215 32.3409 306.03 31.5157 306.315 31.2285C306.791 30.7486 307.089 30.4002 307.343 30.385C307.99 30.3452 307.535 31.6441 307.55 32.2645C307.565 32.8849 307.377 33.7467 306.979 33.7467C306.582 33.7467 306.822 32.9491 306.221 33.1569C305.62 33.3647 306 34.8133 305.384 34.8286C304.768 34.8439 304.971 34.3518 304.483 33.6489C303.992 32.9491 304.025 32.4693 304.134 31.6899C304.243 30.9106 304.641 28.9669 303.864 28.9669C303.088 28.9669 303.928 31.1979 302.569 31.1979C301.477 31.1979 302.096 28.9364 301.589 29.1106C301.083 29.2848 301.225 30.3361 301.019 31.8336C300.846 33.0835 299.881 36.1977 299.533 35.831C299.184 35.4643 299.712 34.0248 299.803 33.4258C300.009 32.0414 299.978 31.803 299.912 31.0206L299.909 31.0298ZM302.026 34.141C302.217 34.7461 302.439 35.0639 302.721 34.1776C303.006 33.2914 302.909 32.4448 302.593 32.402C301.835 32.2951 301.835 33.5389 302.023 34.141H302.026ZM309.37 26.7451C309.661 27.2616 310.377 27.1241 311.005 26.5098C311.633 25.8955 312.154 24.9695 313.556 24.7342C314.957 24.4989 316.359 24.2819 317.457 23.8479C318.552 23.4139 318.785 23.0869 319.092 22.8149C319.398 22.5429 319.65 22.3443 319.971 22.0356C320.296 21.727 320.529 21.2746 321.139 20.914C321.749 20.5503 322.146 20.2447 321.949 19.8444C321.752 19.4471 320.869 19.5724 320.387 20.1347C319.905 20.697 319.38 20.749 318.788 21.458C318.194 22.164 317.96 22.4268 317.548 22.4176C316.792 22.3993 316.38 22.5796 315.858 22.5796C315.336 22.5796 312.91 22.1273 312.245 22.7232C311.581 23.3223 312.048 23.9182 311.384 24.5355C310.72 25.1498 308.796 25.7305 309.37 26.7451ZM309.261 22.0356C309.512 22.2709 309.297 23.0869 309.439 23.1053C309.582 23.1236 309.87 22.653 309.637 22.2373C309.403 21.8217 309.567 21.4855 309.206 21.241C308.881 21.024 308.954 20.2264 308.775 20.4617C308.338 21.0332 309.009 21.8003 309.261 22.0356ZM319.404 19.551C319.225 19.8383 319.004 19.9452 318.834 19.933C318.664 19.9238 318.855 20.6451 317.854 20.856C316.853 21.0668 317.011 20.2386 316.78 20.2386C316.653 20.2386 316.55 21.5436 314.988 21.3113C313.483 21.0852 313.953 19.826 313.607 19.8352C313.258 19.8444 313.301 20.6329 313.365 20.8346C313.428 21.0363 313.274 21.348 312.534 21.1646C311.806 20.9843 311.933 20.1561 311.69 20.2081C311.508 20.2478 311.563 21.1432 312.006 21.4825C312.348 21.7453 312.734 21.7728 313.122 21.7575C313.428 21.7483 313.629 21.5252 313.808 21.6505C313.883 21.7056 314.323 22.1059 315.03 22.1059C315.737 22.1059 316.043 22.0112 316.474 21.6383C316.905 21.2655 316.823 21.51 317.266 21.51C317.708 21.51 318.182 21.4366 318.467 21.2227C318.752 21.0118 318.91 20.7551 318.995 20.4159C319.08 20.0766 319.171 20.2417 319.322 20.15C319.565 20.0002 319.692 19.8138 319.871 19.661C320.156 19.4165 320.42 19.386 320.536 19.1629C320.651 18.9398 320.83 18.8664 320.778 18.7167C320.727 18.5669 320.454 18.4049 320.029 18.7381C319.744 18.9612 319.586 19.2576 319.407 19.5449L319.404 19.551ZM316.125 18.6464C316.061 18.7625 315.813 18.9 315.706 19.0131C315.603 19.1292 315.958 19.1354 316.125 19.2301C316.292 19.3248 316.356 18.9978 316.419 18.8695C316.483 18.7411 316.504 18.5486 316.356 18.4875C316.255 18.4447 316.183 18.5302 316.122 18.6464H316.125ZM273.585 94.7929C273.694 95.2422 273.528 95.4867 273.625 95.8259C273.776 96.3546 274.259 96.4432 274.55 95.4897C274.841 94.5362 274.574 93.818 274.098 93.8914C273.67 93.9586 273.452 94.2428 273.588 94.7929H273.585ZM276.148 75.4507C275.891 76.4347 274.756 77.0001 273.767 76.936C272.775 76.8718 272.818 77.8711 273.154 78.3173C273.491 78.7635 273.364 79.2097 273.176 79.2953C272.985 79.3809 272.605 79.5275 272.754 80.2305C272.903 80.9303 272.985 81.3979 272.733 81.6118C272.481 81.8227 272.029 81.1351 272.017 80.7836C271.987 79.9035 271.701 79.2647 271.037 79.2983C270.761 79.3106 270.437 80.478 271.007 80.86C271.632 81.2787 271.365 82.0397 271.871 82.4645C272.378 82.8893 272.463 82.5928 273.327 82.5714C274.192 82.5501 275.457 83.0604 275.542 83.4425C275.627 83.8245 275.141 84.6527 274.319 84.6527C273.497 84.6527 273.412 83.7175 272.863 83.7175C272.314 83.7175 272.445 84.5763 271.956 84.7994C271.492 85.0102 271.62 83.8214 271.198 83.4608C270.989 83.2805 270.861 83.2896 270.819 83.907C270.776 84.5243 270.588 84.671 270.503 85.2028C270.418 85.7346 270.376 86.3274 270.713 86.3702C271.049 86.413 270.861 85.9026 271.177 85.6062C271.492 85.3097 271.85 85.6276 272.484 85.5206C273.115 85.4137 272.927 86.1166 272.948 86.6025C272.969 87.0915 273.77 88.1519 274.149 87.7699C274.529 87.3879 273.898 87.2168 273.813 86.8775C273.728 86.5383 274.256 86.8134 274.529 86.2816C274.738 85.8782 274.298 85.4748 274.738 85.0072C275.044 84.6832 275.645 84.9216 275.918 84.3899C276.07 84.0965 276.255 84.0934 276.403 84.5182C276.552 84.943 276.233 85.6429 276.151 86.578C276.066 87.5132 276.952 87.6813 277.246 88.1917C277.541 88.7021 277.256 89.3897 275.414 89.4416C273.3 89.5028 273.494 88.2589 272.566 88.4453C271.78 88.6043 272.988 89.5486 273.579 90.3982C274.171 91.2478 273.2 92.183 273.916 92.3511C274.632 92.5222 274.802 93.3718 275.854 93.2007C277.243 92.9776 276.57 91.7551 276.655 91.0339C276.74 90.3126 278.678 89.4202 278.257 88.6134C277.835 87.8066 277.92 87.4246 277.456 86.7859C276.992 86.1502 277.119 85.1294 277.119 84.237C277.119 83.3447 275.433 82.1986 275.433 81.5599C275.433 80.9211 275.138 80.9639 274.759 80.9242C274.38 80.8845 274.337 80.6278 274.802 80.0318C275.266 79.4359 275.314 79.225 275.433 77.865C275.602 75.9549 277.095 77.7153 277.498 75.4874C277.75 74.0846 276.613 74.1702 276.716 73.2655C276.852 72.0859 275.894 70.6006 275.305 71.2393C273.973 72.6788 276.57 73.8309 276.148 75.4446V75.4507ZM274.614 97.7176C273.94 98.3197 274.541 99.3191 275.102 99.9853C275.663 100.652 274.984 102.592 275.833 102.494C276.682 102.397 276.412 101.788 276.027 100.991C275.642 100.193 275.842 98.552 276.315 97.4273C276.788 96.3027 277.064 94.6737 276.352 94.7715C275.332 94.9091 276.373 96.1468 274.614 97.7176ZM246.604 127.292C246.176 128.517 247.095 127.946 247.732 126.827C248.238 125.935 247.923 125.489 248.49 124.66C249.124 123.741 249.233 123.12 248.606 122.986C247.799 122.812 247.031 126.066 246.604 127.292ZM254.46 41.1334C254.599 41.5735 254.806 42.4017 254.942 42.6676C255.233 43.236 255.464 42.6339 255.358 41.6835C255.191 40.2074 254.781 40.1249 254.566 40.1401C254.293 40.1585 254.223 40.403 254.457 41.1364L254.46 41.1334ZM256.262 66.4198C256.495 67.3122 256.062 68.7761 256.089 69.3629C256.146 70.6159 256.574 69.8732 257.038 68.0701C257.612 65.833 257.102 64.7695 256.884 64.6625C256.604 64.5281 255.983 65.3624 256.262 66.4198ZM260.557 55.9862C260.93 57.6548 261.197 64.797 260.123 61.3772C259.444 59.2196 259.747 63.5287 260.108 65.8605C260.469 68.1924 260.059 72.1714 260.105 73.4183C260.15 74.6652 260.624 74.5063 261.051 73.1861C261.479 71.8658 260.557 70.8512 260.76 67.1166C260.963 63.382 261.831 64.9926 261.998 63.3362C262.162 61.6767 261.246 60.7232 261.446 59.0729C261.785 56.2582 261.585 55.4391 261.067 54.0822C259.362 49.6203 260.502 48.8318 259.362 48.0708C258.61 47.5696 260.187 54.3145 260.56 55.9831L260.557 55.9862ZM208.644 9.71025C208.602 10.0923 208.192 10.731 208.474 10.7524C208.832 10.7799 208.896 10.297 209.139 9.4902C209.381 8.68338 209.408 8.22802 209.19 8.04465C208.82 7.73598 208.684 9.32823 208.641 9.7133L208.644 9.71025ZM213.282 9.316C213.133 9.09291 212.87 9.08068 212.469 9.69802C211.617 11.0244 211.383 12.6808 211.878 12.6197C212.581 12.528 212.214 12.0451 212.615 11.3667C213.015 10.6882 213.243 10.9358 213.364 10.2512C213.437 9.83555 213.428 9.5391 213.279 9.316H213.282ZM211.186 15.4527C211.535 15.685 211.829 15.4008 211.638 14.9851C211.447 14.5695 210.74 13.9277 210.543 14.0713C210.091 14.4014 210.837 15.2174 211.186 15.4527Z" fill="white"/>
</svg>
