<svg width="154" height="27" viewBox="0 0 154 27" fill="none" xmlns="http://www.w3.org/2000/svg">
<path d="M16.0154 13.9858V0.433166L18.5957 0.42749V11.7403H24.8234V13.9858H16.0154Z" fill="white"/>
<path d="M28.1738 13.9858V0.42749L35.9206 0.433166V2.69572H30.7504V6.01198H34.4885V8.25751H30.7504V11.7213H36.2308V13.9858H28.1738Z" fill="white"/>
<path d="M49.3926 13.9858V11.1273L42.8508 4.58181V13.9858H40.2762V0.42749H41.9977L49.3926 7.82997V0.42749L51.9729 0.433166V13.9858H49.3926Z" fill="white"/>
<path d="M60.3892 13.9858H56.5508V0.433166L60.2719 0.42749C64.2578 0.433166 68.1738 2.86598 68.1738 7.25677C68.1738 11.6476 64.3505 13.9858 60.3911 13.9858H60.3892ZM60.3476 2.69572H59.1293V11.6721H60.4365C63.3933 11.6721 65.4969 9.99983 65.495 7.25677C65.495 4.53073 63.2798 2.69761 60.3476 2.69761V2.69572Z" fill="white"/>
<path d="M79.9042 13.9858L78.5402 10.1664H73.9564L72.5981 13.9858H69.9232L75.1747 0.433228H77.3957L82.6434 13.9877H79.9042V13.9858ZM76.2493 3.67382L74.6488 8.18379H77.8497L76.2493 3.67382Z" fill="white"/>
<path d="M85.7399 13.9858V0.42749L88.3165 0.433166V11.7403H94.5442V13.9858H85.7399Z" fill="white"/>
<path d="M122.061 13.9858V12.6464C121.435 13.2007 120.383 14.2279 117.757 14.2279C115.131 14.2279 113.219 12.3191 113.219 9.28474V0.42749H115.797V8.90071C115.797 10.8833 116.824 11.9824 118.544 11.9824C120.451 11.9824 121.696 10.5522 122.059 10.0244V0.433166L124.626 0.42749V13.9858H122.059H122.061Z" fill="white"/>
<path d="M150.158 8.25751H145.841V13.9858H143.266V0.42749L145.841 0.433166V6.03847H151.422V0.42749H153.998L154 13.9858H151.422V8.25751H150.158Z" fill="white"/>
<path d="M103.058 0C99.0905 0 95.8726 3.216 95.8726 7.18492C95.8726 11.1538 99.0886 14.3698 103.058 14.3698C107.026 14.3698 110.242 11.1538 110.242 7.18492C110.242 3.216 107.026 0 103.058 0ZM103.058 12.06C100.375 12.06 98.1938 9.87312 98.1938 7.18303C98.1938 4.49294 100.375 2.30606 103.058 2.30606C105.74 2.30606 107.921 4.49294 107.921 7.18303C107.921 9.87312 105.74 12.06 103.058 12.06Z" fill="white"/>
<path d="M139.553 3.50734L134.708 0.0227055L139.553 3.50734ZM135.296 0.0340561C135.099 0.0264891 134.897 0.0208138 134.687 0.0227055C130.72 0.0227055 127.502 3.23871 127.502 7.20763C127.502 11.1766 130.718 14.3926 134.687 14.3926C134.693 14.3926 134.698 14.3926 134.704 14.3926C137.549 14.3926 139.098 13.6302 139.554 13.441V7.49139H136.978V11.8406C136.265 12.007 135.568 12.0997 134.831 12.0997C132.156 12.0997 129.865 10.0472 129.865 7.20763C129.865 4.36809 132.281 2.29472 135.024 2.29472C136.645 2.29472 138.126 2.81684 139.551 3.50923V0.951562C139.112 0.775628 137.63 0.130536 135.294 0.0340561" fill="white"/>
<path d="M12.0487 3.50734L7.20385 0.0227055L12.0487 3.50734ZM7.79218 0.0340561C7.59544 0.0264891 7.39302 0.0208138 7.18304 0.0227055C3.216 0.0227055 0 3.23871 0 7.20574C0 11.1728 3.216 14.3907 7.18493 14.3907C7.1906 14.3907 7.19628 14.3907 7.20195 14.3907C10.0472 14.3907 11.5965 13.6283 12.0524 13.4391V7.4895H9.47586V11.8387C8.76266 12.0051 8.06649 12.0978 7.3287 12.0978C4.65375 12.0978 2.36282 10.0453 2.36282 7.20574C2.36282 4.3662 4.7786 2.29282 7.52166 2.29282C9.14291 2.29282 10.6242 2.81495 12.0487 3.50734V0.951562C11.6098 0.775628 10.1285 0.130536 7.79218 0.0340561Z" fill="white"/>
<path d="M43.3858 22.9919C43.3858 23.5675 43.2825 24.0642 43.0759 24.4819C42.8727 24.8966 42.6119 25.237 42.2935 25.5032C41.9752 25.7662 41.6179 25.9612 41.2216 26.088C40.8288 26.2118 40.4444 26.2737 40.0684 26.2737H37.0305C37.0203 26.2737 37.0119 26.2722 37.0051 26.2691C37.0017 26.2629 37 26.2551 37 26.2459V19.5801C37 19.5708 37.0017 19.5646 37.0051 19.5615C37.0119 19.5553 37.0203 19.5522 37.0305 19.5522H39.8398C40.1074 19.5522 40.3885 19.5785 40.6831 19.6311C40.9778 19.6837 41.2538 19.7627 41.5112 19.8679C41.772 19.9762 42.0175 20.1185 42.2478 20.2949C42.4781 20.4713 42.6762 20.6864 42.8422 20.9402C43.0115 21.1908 43.1436 21.4879 43.2384 21.8314C43.3367 22.1718 43.3858 22.5586 43.3858 22.9919ZM41.6687 22.9176C41.6687 22.4627 41.584 22.096 41.4147 21.8175C41.2453 21.5359 41.015 21.3254 40.7238 21.1862C40.5781 21.1119 40.4156 21.0547 40.2361 21.0144C40.0566 20.9711 39.8686 20.9494 39.6722 20.9494H38.7273V24.8858H40.0075C40.1802 24.8858 40.3648 24.8517 40.5612 24.7837C40.7576 24.7156 40.9371 24.6057 41.0997 24.4541C41.2623 24.2994 41.3977 24.0967 41.5061 23.846C41.6145 23.5922 41.6687 23.2828 41.6687 22.9176Z" fill="white"/>
<path d="M46.9551 26.2737C46.9449 26.2737 46.9365 26.2722 46.9297 26.2691C46.9263 26.2629 46.9246 26.2551 46.9246 26.2459V19.5801C46.9246 19.5708 46.9263 19.5646 46.9297 19.5615C46.9365 19.5553 46.9449 19.5522 46.9551 19.5522H48.6214C48.6316 19.5522 48.6383 19.5553 48.6417 19.5615C48.6485 19.5646 48.6519 19.5708 48.6519 19.5801V26.2459C48.6519 26.2551 48.6485 26.2629 48.6417 26.2691C48.6383 26.2722 48.6316 26.2737 48.6214 26.2737H46.9551Z" fill="white"/>
<path d="M54.7918 26.4083C54.4429 26.4083 54.1263 26.3681 53.8418 26.2876C53.5607 26.2103 53.3084 26.1081 53.0848 25.9813C52.8647 25.8513 52.6699 25.7058 52.5006 25.5449C52.3347 25.384 52.1924 25.2215 52.0739 25.0575C52.0739 25.0482 52.0739 25.0405 52.0739 25.0343C52.0773 25.025 52.0806 25.0204 52.084 25.0204L53.2017 24.2498C53.2118 24.2467 53.222 24.2452 53.2322 24.2452C53.2423 24.2452 53.2491 24.2467 53.2525 24.2498C53.4489 24.5191 53.6928 24.7249 53.984 24.8672C54.2787 25.0065 54.597 25.0761 54.9391 25.0761C55.2168 25.0761 55.4251 25.0127 55.5639 24.8858C55.7062 24.7589 55.7773 24.6135 55.7773 24.4494C55.7773 24.2607 55.6639 24.092 55.4369 23.9435C55.2134 23.7918 54.89 23.6433 54.4666 23.4978C53.8739 23.2936 53.393 23.0321 53.0239 22.7134C52.6547 22.3946 52.4701 21.9366 52.4701 21.3394C52.4701 21.0454 52.5294 20.7792 52.6479 20.541C52.7665 20.3027 52.9273 20.1 53.1305 19.9329C53.3371 19.7658 53.5793 19.6373 53.857 19.5476C54.1381 19.4547 54.4362 19.4083 54.7511 19.4083C55.0559 19.4083 55.332 19.4408 55.5792 19.5058C55.8298 19.5708 56.055 19.6559 56.2549 19.7611C56.4547 19.8632 56.6325 19.9824 56.7883 20.1185C56.9474 20.2547 57.0897 20.3924 57.215 20.5317C57.2184 20.5348 57.2201 20.541 57.2201 20.5502C57.2201 20.5595 57.2184 20.5657 57.215 20.5688L56.2142 21.4043C56.2108 21.4074 56.2041 21.409 56.1939 21.409C56.1837 21.409 56.177 21.4074 56.1736 21.4043C55.9907 21.2218 55.7807 21.0701 55.5436 20.9494C55.3066 20.8287 55.0593 20.7684 54.8019 20.7684C54.5682 20.7684 54.3887 20.8257 54.2634 20.9402C54.1381 21.0516 54.0755 21.2001 54.0755 21.3858C54.0755 21.5807 54.2025 21.7355 54.4565 21.85C54.7139 21.9614 55.0542 22.0867 55.4776 22.226C56.0466 22.4085 56.5038 22.6716 56.8492 23.0151C57.1981 23.3586 57.3725 23.7918 57.3725 24.3148C57.3725 24.6026 57.3166 24.8734 57.2048 25.1272C57.0965 25.3809 56.9339 25.6037 56.7171 25.7956C56.5038 25.9844 56.2345 26.1345 55.9094 26.2459C55.5877 26.3542 55.2151 26.4083 54.7918 26.4083Z" fill="white"/>
<path d="M62.8215 20.9866L60.3119 20.968C60.3017 20.968 60.2932 20.9665 60.2865 20.9634C60.2831 20.9572 60.2814 20.9494 60.2814 20.9402V19.5801C60.2814 19.5708 60.2831 19.5646 60.2865 19.5615C60.2932 19.5553 60.3017 19.5522 60.3119 19.5522H67.0431C67.0533 19.5522 67.06 19.5553 67.0634 19.5615C67.0702 19.5646 67.0736 19.5708 67.0736 19.5801V20.9402C67.0736 20.9494 67.0702 20.9572 67.0634 20.9634C67.06 20.9665 67.0533 20.968 67.0431 20.968L64.5487 20.9866V26.2459C64.5487 26.2551 64.5453 26.2629 64.5386 26.2691C64.5352 26.2722 64.5284 26.2737 64.5183 26.2737H62.852C62.8418 26.2737 62.8333 26.2722 62.8266 26.2691C62.8232 26.2629 62.8215 26.2551 62.8215 26.2459V20.9866Z" fill="white"/>
<path d="M70.4803 26.2737C70.4702 26.2737 70.4617 26.2722 70.4549 26.2691C70.4515 26.2629 70.4499 26.2551 70.4499 26.2459V19.5801C70.4499 19.5708 70.4515 19.5646 70.4549 19.5615C70.4617 19.5553 70.4702 19.5522 70.4803 19.5522H72.1466C72.1568 19.5522 72.1636 19.5553 72.167 19.5615C72.1737 19.5646 72.1771 19.5708 72.1771 19.5801V26.2459C72.1771 26.2551 72.1737 26.2629 72.167 26.2691C72.1636 26.2722 72.1568 26.2737 72.1466 26.2737H70.4803Z" fill="white"/>
<path d="M78.0478 24.8301L81.6344 24.8394C81.6445 24.8394 81.6513 24.8425 81.6547 24.8486C81.6615 24.8517 81.6648 24.8579 81.6648 24.8672V26.2459C81.6648 26.2551 81.6615 26.2629 81.6547 26.2691C81.6513 26.2722 81.6445 26.2737 81.6344 26.2737H76.351C76.3408 26.2737 76.3324 26.2722 76.3256 26.2691C76.3222 26.2629 76.3205 26.2551 76.3205 26.2459V19.5801C76.3205 19.5708 76.3222 19.5646 76.3256 19.5615C76.3324 19.5553 76.3408 19.5522 76.351 19.5522H78.0122C78.0257 19.5522 78.0342 19.5553 78.0376 19.5615C78.0444 19.5646 78.0478 19.5708 78.0478 19.5801V24.8301Z" fill="white"/>
<path d="M86.997 24.8301L90.5836 24.8394C90.5937 24.8394 90.6005 24.8425 90.6039 24.8486C90.6107 24.8517 90.6141 24.8579 90.6141 24.8672V26.2459C90.6141 26.2551 90.6107 26.2629 90.6039 26.2691C90.6005 26.2722 90.5937 26.2737 90.5836 26.2737H85.3002C85.29 26.2737 85.2816 26.2722 85.2748 26.2691C85.2714 26.2629 85.2697 26.2551 85.2697 26.2459V19.5801C85.2697 19.5708 85.2714 19.5646 85.2748 19.5615C85.2816 19.5553 85.29 19.5522 85.3002 19.5522H86.9614C86.975 19.5522 86.9834 19.5553 86.9868 19.5615C86.9936 19.5646 86.997 19.5708 86.997 19.5801V24.8301Z" fill="white"/>
<path d="M95.9259 24.8579H99.5226C99.5328 24.8579 99.5396 24.861 99.543 24.8672C99.5497 24.8703 99.5531 24.8765 99.5531 24.8858V26.2459C99.5531 26.2551 99.5497 26.2629 99.543 26.2691C99.5396 26.2722 99.5328 26.2737 99.5226 26.2737H94.2494C94.2393 26.2737 94.2308 26.2722 94.224 26.2691C94.2206 26.2629 94.2189 26.2551 94.2189 26.2459V19.5801C94.2189 19.5708 94.2206 19.5646 94.224 19.5615C94.2308 19.5553 94.2393 19.5522 94.2494 19.5522H99.2839C99.294 19.5522 99.3008 19.5553 99.3042 19.5615C99.311 19.5646 99.3144 19.5708 99.3144 19.5801V20.9216C99.3144 20.9309 99.311 20.9386 99.3042 20.9448C99.3008 20.9479 99.294 20.9494 99.2839 20.9494L95.9259 20.9773V22.2817L98.2323 22.3095C98.2424 22.3095 98.2492 22.3126 98.2526 22.3188C98.2594 22.3219 98.2628 22.3281 98.2628 22.3374V23.6139C98.2628 23.6232 98.2594 23.6309 98.2526 23.6371C98.2492 23.6402 98.2424 23.6417 98.2323 23.6417L95.9259 23.6603V24.8579Z" fill="white"/>
<path d="M107.075 21.6736C107.075 21.5838 107.06 21.4925 107.029 21.3997C106.999 21.3038 106.95 21.2171 106.882 21.1398C106.814 21.0624 106.724 20.999 106.613 20.9494C106.504 20.8999 106.37 20.8752 106.211 20.8752H104.941V22.472H106.033C106.345 22.472 106.596 22.407 106.785 22.277C106.978 22.144 107.075 21.9428 107.075 21.6736ZM104.921 23.8785V26.2459C104.921 26.2551 104.917 26.2629 104.911 26.2691C104.907 26.2722 104.901 26.2737 104.89 26.2737H103.29C103.28 26.2737 103.271 26.2722 103.265 26.2691C103.261 26.2629 103.26 26.2551 103.26 26.2459V19.5801C103.26 19.5708 103.261 19.5646 103.265 19.5615C103.271 19.5553 103.28 19.5522 103.29 19.5522H106.506C106.685 19.5522 106.902 19.5816 107.156 19.6404C107.413 19.6992 107.657 19.8075 107.888 19.9654C108.121 20.1201 108.319 20.3383 108.482 20.6199C108.648 20.9015 108.731 21.262 108.731 21.7014C108.731 22.113 108.623 22.4689 108.406 22.7691C108.189 23.0692 107.901 23.2936 107.542 23.4421C107.576 23.5009 107.639 23.6093 107.73 23.7671C107.822 23.9249 107.925 24.1044 108.04 24.3055C108.155 24.5067 108.275 24.7187 108.401 24.9415C108.529 25.1643 108.646 25.3701 108.751 25.5589C108.846 25.7198 108.931 25.8559 109.005 25.9673C109.083 26.0757 109.148 26.1592 109.198 26.218C109.212 26.2366 109.215 26.2505 109.208 26.2598C109.202 26.2691 109.192 26.2737 109.178 26.2737H107.212C107.209 26.2737 107.204 26.2722 107.197 26.2691C107.19 26.2629 107.185 26.2551 107.181 26.2459L105.972 23.8878L104.921 23.8785Z" fill="white"/>
<path d="M114.434 26.2737C114.424 26.2737 114.415 26.2722 114.409 26.2691C114.405 26.2629 114.403 26.2551 114.403 26.2459V23.2425L111.457 19.5986C111.447 19.5863 111.443 19.5754 111.447 19.5662C111.454 19.5569 111.465 19.5522 111.482 19.5522H113.448L113.469 19.5615L115.338 21.8732L117.132 19.5615C117.132 19.5615 117.133 19.56 117.137 19.5569C117.143 19.5538 117.148 19.5522 117.152 19.5522H118.971C118.984 19.5522 118.993 19.5569 118.996 19.5662C119.003 19.5754 119.001 19.5863 118.991 19.5986L116.171 23.1822V26.2459C116.171 26.2551 116.168 26.2629 116.161 26.2691C116.158 26.2722 116.151 26.2737 116.141 26.2737H114.434Z" fill="white"/>
</svg>
