<svg width="113" height="102" viewBox="0 0 113 102" fill="none" xmlns="http://www.w3.org/2000/svg">
<g style="mix-blend-mode:multiply">
<path d="M56.4831 85.3342C37.2766 85.3259 21.6606 69.6903 21.6689 50.4837C21.6773 31.2771 37.3129 15.6584 56.5166 15.6695C75.7232 15.6779 91.3392 31.3134 91.3308 50.52C91.3225 69.7266 75.6869 85.3454 56.4831 85.3342ZM56.5166 16.9204C37.9997 16.912 22.9282 31.9668 22.9198 50.4837C22.9114 69.0007 37.9662 84.0722 56.4831 84.0806C75.0001 84.089 90.0716 69.0342 90.08 50.5172C90.0884 32.0003 75.0336 16.9288 56.5166 16.9204Z" fill="white"/>
<path d="M56.4835 85.5046C37.182 85.4962 21.4879 69.7853 21.499 50.4838C21.5074 31.1823 37.2183 15.4881 56.5198 15.4965C75.8214 15.5048 91.5155 31.2158 91.5043 50.5173C91.496 69.8188 75.7851 85.513 56.4835 85.5046ZM56.517 15.8399C37.4054 15.8315 21.848 31.3721 21.8397 50.4838C21.8313 69.5954 37.3719 85.1528 56.4835 85.1639C75.5952 85.1723 91.1526 69.6317 91.1609 50.5201C91.1693 31.4084 75.6287 15.8511 56.517 15.8399ZM56.4835 84.2537C37.8745 84.2454 22.7415 69.0956 22.7499 50.4838C22.7582 31.8719 37.908 16.7389 56.517 16.7473C75.1289 16.7557 90.2619 31.9054 90.2507 50.5173C90.2423 69.1291 75.0926 84.2621 56.4808 84.2509L56.4835 84.2537ZM56.517 17.0907C38.095 17.0824 23.1017 32.0618 23.0933 50.4838C23.0849 68.9058 38.0643 83.9019 56.4835 83.9103C74.9056 83.9187 89.9017 68.9393 89.9101 50.5173C89.9185 32.0953 74.9391 17.0991 56.517 17.0907Z" fill="white"/>
<path d="M56.4745 100.83C28.7242 100.816 6.15597 78.228 6.16993 50.4749C6.18389 22.7246 28.7745 0.156365 56.5247 0.170325C84.275 0.184285 106.843 22.7721 106.829 50.5251C106.815 78.2782 84.2248 100.844 56.4745 100.83ZM56.5247 1.42117C29.4641 1.41 7.43473 23.4142 7.42077 50.4777C7.40681 77.5383 29.4138 99.5677 56.4745 99.5816C83.5351 99.5956 105.564 77.5886 105.578 50.5279C105.592 23.4673 83.5854 1.43792 56.5247 1.42396V1.42117Z" fill="white"/>
<path d="M56.4749 101.003C28.6297 100.989 5.98605 78.3229 6.00001 50.4749C6.01397 22.6269 28.6799 -0.0139538 56.5251 6.45246e-06C84.3703 0.0139668 107.014 22.6799 107 50.5279C106.986 78.3759 84.3201 101.017 56.4721 101.003H56.4749ZM56.5251 0.34343C28.8698 0.32947 6.35739 22.8195 6.34343 50.4777C6.32947 78.133 28.8195 100.645 56.4749 100.659C84.133 100.673 106.645 78.1833 106.659 50.5279C106.673 22.8698 84.1833 0.35739 56.5251 0.34343ZM56.4749 99.7519C29.3193 99.738 7.23689 77.6332 7.25085 50.4777C7.26481 23.3193 29.3696 1.23968 56.5251 1.25085C83.6807 1.26481 105.763 23.3696 105.749 50.5251C105.735 77.6807 83.6304 99.7631 56.4749 99.7492V99.7519ZM56.5251 1.59427C29.5566 1.58031 7.60544 23.5092 7.59427 50.4777C7.58031 77.4462 29.5092 99.3946 56.4777 99.4085C83.4462 99.4225 105.395 77.4936 105.409 50.5251C105.422 23.5566 83.4936 1.60823 56.5251 1.59427Z" fill="white"/>
<path d="M38.4521 84.5581C40.0491 85.3762 40.8924 87.2999 40.0352 88.9724C39.178 90.6476 37.1259 91.1083 35.5176 90.2874C34.4511 89.7402 33.929 89.098 33.7754 88.9249L34.2975 87.9086C34.7275 88.4754 35.2105 88.9891 35.8583 89.3186C36.9528 89.8798 38.3264 89.5643 38.9156 88.4112C39.4963 87.2804 39.0021 85.9932 37.9356 85.446C37.6396 85.298 37.3436 85.1919 37.0253 85.1137L36.1375 86.8448L35.11 86.3199L36.3245 83.9495C36.5451 83.9662 37.3185 83.9802 38.4493 84.5581H38.4521Z" fill="white"/>
<path d="M37.1421 90.854C36.5725 90.854 35.989 90.72 35.4417 90.4408C34.3947 89.9047 33.8503 89.2709 33.6716 89.0643L33.5962 88.9749L33.6269 88.8465L34.2719 87.5873L34.4366 87.8051C34.78 88.2574 35.2575 88.8186 35.9387 89.1648C36.4636 89.4328 37.0723 89.4915 37.614 89.3156C38.1221 89.1536 38.5186 88.813 38.7671 88.33C39.2836 87.322 38.8871 86.1215 37.8625 85.5965C37.6223 85.4765 37.3794 85.3843 37.1198 85.3117L36.2179 87.0708L34.8833 86.3895L36.2263 83.765L36.3855 83.7761C36.673 83.7929 37.4381 83.8431 38.527 84.3987C40.3195 85.3173 41.0482 87.3583 40.1855 89.0447C39.5963 90.1951 38.4013 90.8456 37.1393 90.8456L37.1421 90.854ZM33.9843 88.8995C34.2188 89.1648 34.7214 89.6841 35.5981 90.1336C37.1952 90.9489 39.1161 90.3933 39.8839 88.894C40.7495 87.202 39.7974 85.4374 38.3734 84.7087C37.4185 84.2201 36.7345 84.1475 36.4273 84.1251L35.3412 86.2415L36.0644 86.6101L36.9355 84.9125L37.0667 84.946C37.399 85.027 37.7089 85.1414 38.0132 85.2894C39.211 85.9037 39.6745 87.3081 39.0686 88.4863C38.7838 89.0419 38.3036 89.4524 37.7145 89.6422C37.0891 89.8433 36.3827 89.779 35.7796 89.4691C35.143 89.1453 34.6767 88.6594 34.3249 88.2239L33.9787 88.8968L33.9843 88.8995Z" fill="white"/>
<path d="M31.8584 80.4386L27.7987 84.9394L26.9443 84.1688L30.3311 80.4107L28.036 78.3362L28.7061 77.5935L31.8584 80.4386Z" fill="white"/>
<path d="M27.8135 85.18L26.7051 84.1776L30.0918 80.4195L27.7968 78.345L28.6986 77.3483L32.1049 80.4251L27.8163 85.18H27.8135ZM27.1881 84.1553L27.7884 84.697L31.6163 80.4502L28.7182 77.8341L28.277 78.3227L30.5721 80.3972L27.1853 84.1553H27.1881Z" fill="white"/>
<path d="M25.4315 73.7073L20.4254 77.1219L18.3564 74.0926L19.1941 73.5202L20.6152 75.6003L21.8409 74.7627L20.7827 73.2131L21.612 72.6463L22.6702 74.1987L23.9489 73.3275L22.4496 71.133L23.2872 70.5606L25.4343 73.7073H25.4315Z" fill="white"/>
<path d="M20.3807 77.3595L18.1191 74.0481L19.2388 73.2831L20.6599 75.3632L21.6008 74.721L20.5426 73.1714L21.6567 72.412L22.7149 73.9644L23.7116 73.2859L22.2123 71.0941L23.3319 70.3291L25.6745 73.7605L20.3863 77.3679L20.3807 77.3595ZM18.5938 74.1375L20.4701 76.8849L25.1942 73.6628L23.2398 70.7982L22.6842 71.1751L24.1835 73.3697L22.6199 74.4334L21.5618 72.881L21.0145 73.2552L22.0727 74.8048L20.565 75.835L19.1438 73.755L18.591 74.1319L18.5938 74.1375Z" fill="white"/>
<path d="M19.4146 61.8943L18.2057 62.3187L16.4187 66.0489L20.3863 64.6501L20.7716 65.739L15.0534 67.7548L14.7993 67.0289L16.818 62.8073L13.6993 63.9074L13.314 62.8185L19.0321 60.8026L19.4174 61.8915L19.4146 61.8943Z" fill="white"/>
<path d="M14.9478 67.9753L14.6128 67.0232L14.6435 66.959L16.4834 63.1115L13.5937 64.1306L13.0967 62.7179L13.2558 62.6592L19.1359 60.5875L19.6329 62.0003L18.3318 62.4582L16.7543 65.7528L20.4928 64.435L20.9898 65.8478L20.8307 65.9064L14.9506 67.9781L14.9478 67.9753ZM14.9813 67.0428L15.1572 67.5398L20.5515 65.6356L20.2807 64.8678L16.0842 66.3503L18.0805 62.1818L19.1945 61.7909L18.9237 61.0231L13.5294 62.9273L13.8003 63.6951L17.148 62.514L14.9813 67.0428Z" fill="white"/>
<path d="M17.8146 53.1941L17.9263 55.2183L11.8703 55.5534L11.7615 53.5794C11.6637 51.8008 12.6577 49.9916 14.6177 49.8827C16.6001 49.7738 17.7169 51.4239 17.8118 53.1941H17.8146ZM12.775 53.49L12.8196 54.3444L16.829 54.1238L16.7788 53.2304C16.7062 51.9097 15.9105 51.0107 14.6847 51.0749C13.4702 51.1447 12.7024 52.1778 12.775 53.49Z" fill="white"/>
<path d="M11.7096 55.7354L11.5923 53.5911C11.4918 51.7539 12.4969 49.833 14.6105 49.7157C15.5961 49.6571 16.4337 50.0117 17.0536 50.7264C17.6036 51.3602 17.9331 52.2341 17.9861 53.189L18.1062 55.3864L11.7096 55.7382V55.7354ZM14.806 50.0507C14.7473 50.0507 14.6887 50.0507 14.6301 50.0563C12.7398 50.1624 11.8408 51.9047 11.9357 53.5715L12.0362 55.3752L17.7488 55.0597L17.6455 53.2058C17.598 52.3263 17.2965 51.525 16.7967 50.9498C16.2858 50.3607 15.5989 50.0507 14.806 50.0507ZM12.6589 54.5264L12.6058 53.5017C12.5276 52.0694 13.3988 50.9805 14.6775 50.9051C15.9703 50.8353 16.8721 51.7679 16.9531 53.2225L17.0117 54.2863L12.6589 54.5236V54.5264ZM14.8115 51.2457C14.7725 51.2457 14.7334 51.2458 14.6943 51.2485C13.5942 51.31 12.8766 52.2286 12.9465 53.4822L12.9827 54.1635L16.6515 53.9624L16.6096 53.2393C16.5426 52.0164 15.8418 51.243 14.8115 51.243V51.2457Z" fill="white"/>
<path d="M18.9084 40.8228L17.1131 41.0629L16.6887 43.0704L18.2299 44.0169L17.9842 45.1868L12.5425 41.6353L12.7463 40.6636L19.1625 39.6222L18.9084 40.8228ZM14.0614 41.4649L15.8846 42.5818L16.1805 41.183L14.0614 41.4649Z" fill="white"/>
<path d="M18.0975 45.4658L12.3486 41.7133L12.6027 40.5127L19.3818 39.4126L19.0496 40.9761L17.2543 41.2163L16.8801 42.9864L18.4214 43.9329L18.0975 45.463V45.4658ZM12.7311 41.5541L17.8657 44.9074L18.0361 44.1005L16.4948 43.154L16.9695 40.9119L18.7648 40.6718L18.9435 39.8342L12.8903 40.817L12.7339 41.5597L12.7311 41.5541ZM16.0006 42.8552L13.5576 41.3587L16.3971 40.9789L16.0006 42.8524V42.8552ZM14.5599 41.5709L15.7661 42.308L15.9616 41.3838L14.5599 41.5709Z" fill="white"/>
<path d="M20.9492 34.8668L15.5103 32.1781L16.0212 31.1422L20.5583 33.387L21.932 30.6117L22.831 31.0557L20.9492 34.8668Z" fill="white"/>
<path d="M21.0244 35.0959L20.8708 35.0205L15.2783 32.2564L15.94 30.9162L16.0936 30.9916L20.4771 33.161L21.8508 30.3857L23.057 30.9804L22.9816 31.134L21.0216 35.0987L21.0244 35.0959ZM15.7362 32.1L20.868 34.638L22.5991 31.134L22.0072 30.8408L20.6335 33.6161L20.4799 33.5407L16.0964 31.3713L15.7362 32.1Z" fill="white"/>
<path d="M27.5735 24.9137C26.278 26.3768 24.237 26.508 22.9108 25.3353C21.5818 24.1627 21.4645 22.1217 22.76 20.6558C24.0611 19.1844 26.1049 19.0504 27.4311 20.2286C28.7601 21.4013 28.8774 23.4423 27.5735 24.9165V24.9137ZM23.5195 21.3259C22.6762 22.278 22.7851 23.6405 23.6954 24.4475C24.6084 25.2544 25.9737 25.1929 26.8141 24.2408C27.6629 23.2804 27.5568 21.9178 26.6466 21.1137C25.7336 20.304 24.3682 20.3655 23.5195 21.3259Z" fill="white"/>
<path d="M24.9872 26.2959C24.1803 26.2959 23.4096 26.0055 22.7982 25.4639C22.1141 24.8608 21.7177 24.026 21.6814 23.113C21.6451 22.1916 21.9829 21.2786 22.6335 20.5415C23.3063 19.782 24.2026 19.3297 25.1519 19.2711C26.0398 19.2152 26.8858 19.5112 27.5475 20.0975C28.2315 20.7006 28.628 21.5382 28.6643 22.4484C28.7006 23.3726 28.36 24.2856 27.7066 25.0255C27.0561 25.7598 26.1933 26.2066 25.2719 26.2819C25.177 26.2903 25.0821 26.2931 24.9899 26.2931L24.9872 26.2959ZM25.3557 19.6089C25.2943 19.6089 25.2329 19.6089 25.1714 19.6145C24.3115 19.6676 23.5018 20.0752 22.8875 20.7704C22.2956 21.4377 21.9885 22.267 22.022 23.099C22.0555 23.9171 22.4101 24.6681 23.0243 25.207C23.6358 25.7487 24.4287 26.0083 25.2412 25.9441C26.0733 25.8743 26.855 25.4695 27.447 24.8022C28.0417 24.1293 28.3516 23.3 28.3181 22.4652C28.2874 21.6471 27.93 20.8989 27.3185 20.3572C26.7713 19.8714 26.0816 19.6089 25.3557 19.6089ZM25.1491 25.1791C24.5935 25.1791 24.0379 24.9808 23.5828 24.5788C22.5888 23.6965 22.505 22.2195 23.3929 21.2144C23.8312 20.7202 24.4204 20.427 25.0514 20.3879C25.66 20.3572 26.2827 20.5638 26.7629 20.9882C27.2404 21.4126 27.5251 21.9878 27.5642 22.6132C27.6033 23.2442 27.3827 23.864 26.9444 24.3582C26.4614 24.9027 25.808 25.1791 25.1491 25.1791ZM23.647 21.4433C22.8875 22.3033 22.9573 23.5681 23.8089 24.3219C24.6605 25.073 25.9225 24.9892 26.6875 24.1293C27.0645 23.7049 27.2543 23.1716 27.2208 22.6327C27.1901 22.1022 26.9444 21.608 26.534 21.2451C26.1235 20.8821 25.6237 20.7006 25.0709 20.7313C24.5293 20.7648 24.0267 21.0161 23.6498 21.4433H23.647Z" fill="white"/>
<path d="M37.1943 16.8166L36.8788 16.3085C36.7755 16.6659 36.6163 17.3025 35.6196 17.9223C34.6312 18.5393 33.4473 18.2713 32.7298 17.121L30.6357 13.7593L31.613 13.1479L33.6177 16.3643C34.0867 17.1182 34.7345 17.2913 35.3878 16.8836C36.1138 16.4341 36.245 15.5937 36.259 15.3117L33.989 11.6737L34.9662 11.0622L38.1743 16.208L37.1971 16.8166H37.1943Z" fill="white"/>
<path d="M34.5363 18.4163C34.3855 18.4163 34.2347 18.3996 34.0867 18.3661C33.4865 18.2293 32.9671 17.83 32.5818 17.213L30.3984 13.7061L31.666 12.9132L33.7629 16.2748C33.9779 16.6238 34.2403 16.8416 34.5195 16.9058C34.7652 16.9645 35.0277 16.9058 35.2957 16.7383C35.9518 16.3335 36.0635 15.574 36.0831 15.3563L33.7517 11.6177L35.0193 10.8247L38.4061 16.2637L37.1385 17.0538L36.9235 16.7104C36.7699 17.0985 36.4684 17.5955 35.7089 18.0701C35.3404 18.2991 34.9383 18.4163 34.5363 18.4163ZM30.8703 13.815L32.875 17.0315C33.21 17.5676 33.6568 17.9138 34.1649 18.0338C34.62 18.1371 35.0919 18.0506 35.5275 17.7798C36.4377 17.213 36.6024 16.6406 36.7001 16.2972L36.8062 15.9286L37.0212 16.219L37.2474 16.582L37.9342 16.152L34.9076 11.2966L34.2208 11.7266L36.4293 15.2669V15.32C36.4209 15.44 36.3511 16.4898 35.4744 17.0315C35.131 17.2437 34.7708 17.3219 34.4413 17.2409C34.07 17.1543 33.7349 16.8835 33.4697 16.4563L31.5571 13.3878L30.8703 13.8178V13.815Z" fill="white"/>
<path d="M46.4278 13.2203C44.7023 13.7117 42.7785 12.8797 42.2648 11.0732C41.7538 9.2612 42.9377 7.53012 44.6743 7.03872C45.8275 6.71204 46.6455 6.82373 46.8745 6.84606L47.1844 7.94614C46.4836 7.82328 45.78 7.77582 45.082 7.97406C43.9009 8.3119 43.1108 9.47898 43.4626 10.7214C43.8088 11.9444 45.0457 12.5475 46.196 12.2236C46.5143 12.1314 46.8019 12.0058 47.0867 11.8466L46.559 9.97596L47.6702 9.66046L48.3934 12.218C48.2231 12.3576 47.6479 12.8769 46.425 13.2203H46.4278Z" fill="white"/>
<path d="M45.4341 13.5275C44.8702 13.5275 44.3145 13.4047 43.8175 13.159C42.966 12.7429 42.3573 12.017 42.1004 11.118C41.5923 9.31429 42.7258 7.41011 44.6272 6.87124C45.7608 6.55015 46.5873 6.6395 46.8609 6.67021L46.9754 6.68138L47.0396 6.79585L47.4249 8.15838L47.1568 8.11091C46.3276 7.96573 45.705 7.97131 45.1326 8.13604C43.9795 8.4655 43.3206 9.57954 43.6305 10.6712C43.9376 11.7601 45.0488 12.366 46.1545 12.0561C46.3974 11.9863 46.6347 11.8914 46.8916 11.7573L46.3527 9.85595L47.7934 9.44831L48.5948 12.2795L48.4719 12.38C48.2485 12.5642 47.6594 13.0529 46.4784 13.3851C46.1377 13.48 45.7887 13.5303 45.4369 13.5303L45.4341 13.5275ZM46.2634 6.98013C45.8753 6.98013 45.3504 7.0248 44.7222 7.2007C42.9715 7.6949 41.9636 9.37572 42.4299 11.0258C42.6588 11.8299 43.2061 12.4805 43.9683 12.8546C44.697 13.2148 45.5765 13.2874 46.3834 13.0557C47.4165 12.7653 47.9638 12.3521 48.2039 12.1566L47.5589 9.8727L46.7771 10.0933L47.2964 11.9305L47.1764 11.9947C46.8497 12.1762 46.5566 12.299 46.2494 12.3856C44.9567 12.7485 43.664 12.0365 43.3038 10.7662C42.9408 9.4874 43.7059 8.18909 45.0405 7.80937C45.7273 7.61672 46.4002 7.65302 46.9502 7.73398L46.7436 7.00246C46.6236 6.9913 46.4616 6.98013 46.2634 6.98013Z" fill="white"/>
<path d="M57.9927 11.7237L58.0039 9.1606L55.1951 9.14664L55.1839 11.7125L54.0308 11.707L54.0615 5.63702L55.2146 5.6454L55.2034 8.15267L58.0122 8.16663L58.0234 5.65657L59.1765 5.66215L59.1458 11.7293L57.9927 11.7237Z" fill="white"/>
<path d="M59.3193 11.9024L57.8228 11.8941L57.8339 9.33096L55.3686 9.31979L55.3574 11.8857L53.8608 11.8773L53.8943 5.46396L55.3881 5.47513L55.3769 7.9824L57.8451 7.99356L57.8563 5.4835L59.3528 5.49188L59.3193 11.9024ZM58.169 11.5534H58.9815L59.0094 5.83251H58.1969L58.1857 8.33978L55.0363 8.32303L55.0475 5.81576L54.235 5.81017L54.2071 11.5367H55.0195L55.0307 8.97358L58.1829 8.99033L58.1718 11.5534H58.169Z" fill="white"/>
<path d="M78.0923 18.3077L76.4282 17.1518L79.8932 12.1764L81.5126 13.3044C82.9756 14.3235 83.7909 16.2165 82.6685 17.8303C81.5349 19.4553 79.547 19.3212 78.0923 18.3105V18.3077ZM80.9597 14.1531L80.2589 13.6645L77.9666 16.9564L78.7038 17.4701C79.7871 18.2268 80.9877 18.1514 81.6885 17.1434C82.3837 16.1467 82.0375 14.9014 80.9597 14.1531Z" fill="white"/>
<path d="M80.35 19.2401C79.5207 19.2401 78.6803 18.9302 77.9935 18.45L76.187 17.1964L79.8474 11.9389L81.6064 13.1646C83.1169 14.2172 84.0132 16.1912 82.8042 17.9307C82.1509 18.8688 81.2574 19.2429 80.3472 19.2429L80.35 19.2401ZM76.6645 17.1098L78.1889 18.168C79.4956 19.0782 81.411 19.3267 82.525 17.7324C83.6055 16.18 82.7846 14.3987 81.4137 13.4438L79.934 12.4136L76.6645 17.1098ZM80.1573 18.1484C79.6464 18.1484 79.1075 17.9642 78.6021 17.6124L77.7254 17.0009L80.2132 13.4271L81.0536 14.0134C81.6148 14.4043 82.0029 14.9376 82.1509 15.5155C82.3016 16.1102 82.1871 16.7245 81.8242 17.2438C81.4919 17.7241 81.0368 18.0284 80.5091 18.1205C80.3946 18.1429 80.2746 18.1512 80.1573 18.1512V18.1484ZM78.2029 16.9144L78.8004 17.3304C79.3476 17.7129 79.9451 17.8748 80.4533 17.7799C80.8888 17.7017 81.2658 17.4476 81.5478 17.0456C81.8549 16.6016 81.9498 16.1019 81.8214 15.5965C81.6957 15.0967 81.3551 14.6332 80.8609 14.2926L80.2997 13.9017L78.2029 16.9144Z" fill="white"/>
<path d="M84.877 24.1227L89.3945 20.0658L90.1651 20.9258L85.6504 24.9826L84.877 24.1227Z" fill="white"/>
<path d="M85.6361 25.2259L84.6338 24.1119L89.4082 19.8261L90.4078 20.9401L85.6361 25.2259ZM85.1196 24.137L85.6641 24.7401L89.9247 20.9122L89.3831 20.3091L85.1196 24.137Z" fill="white"/>
<path d="M89.7996 31.09C89.3306 30.2775 89.3362 29.4985 89.311 29.1942L90.2827 28.6357C90.2938 28.9345 90.3134 29.9089 90.6875 30.5567C91.0393 31.1681 91.514 31.2882 91.8015 31.1235C92.0584 30.9727 92.0975 30.593 92.1171 30.2133L92.1422 29.0629C92.1729 28.3454 92.2232 27.5999 93.0273 27.1392C93.9459 26.6087 94.9203 27.1085 95.4508 28.0299C95.878 28.7698 95.917 29.4622 95.9338 29.6632L95.0012 30.1993C94.9845 29.9117 94.9035 29.1104 94.5741 28.538C94.3004 28.0634 93.8816 27.9768 93.6024 28.136C93.3344 28.2895 93.2981 28.6776 93.2925 29.0518L93.2562 30.2077C93.245 30.7186 93.206 31.6428 92.4018 32.1007C91.4414 32.6563 90.3944 32.123 89.7996 31.0872V31.09Z" fill="white"/>
<path d="M91.5972 32.4972C91.4492 32.4972 91.2985 32.4777 91.1505 32.4386C90.5614 32.2795 90.0309 31.8327 89.6539 31.1766C89.2184 30.4255 89.1737 29.7135 89.1514 29.331L89.1318 29.0993L90.4441 28.3454L90.4581 28.6721C90.472 29.0044 90.5027 29.8867 90.8378 30.4674C91.1198 30.9616 91.4911 31.0928 91.7201 30.9728C91.9016 30.8667 91.9323 30.5344 91.949 30.205L91.9742 29.0574C92.0021 28.365 92.0384 27.5106 92.9458 26.9913C93.4288 26.7121 93.9509 26.6786 94.4535 26.8824C94.9058 27.0695 95.3162 27.4464 95.6038 27.9462C96.0366 28.6944 96.0897 29.398 96.1064 29.627L96.1148 29.7359L96.0226 29.8113L94.85 30.4869L94.8332 30.2105C94.8193 29.9788 94.7495 29.1803 94.4284 28.6246C94.3223 28.4404 94.1855 28.3147 94.0375 28.2617C93.9202 28.2226 93.7946 28.2282 93.6913 28.2868C93.5014 28.3929 93.4735 28.7196 93.4679 29.0546L93.4316 30.2133C93.4204 30.7047 93.3953 31.7322 92.4907 32.2487C92.2059 32.4107 91.9071 32.4944 91.6 32.4944L91.5972 32.4972ZM89.4892 29.2892V29.3115C89.5143 29.6633 89.5534 30.3222 89.9499 31.0063C90.2766 31.5759 90.7456 31.9751 91.2398 32.1091C91.6084 32.2124 91.9714 32.1594 92.3204 31.9584C93.0575 31.5368 93.077 30.674 93.0882 30.2105L93.1245 29.0546C93.1273 28.7642 93.1357 28.2142 93.521 27.9964C93.708 27.8875 93.937 27.8708 94.1492 27.9462C94.3781 28.0271 94.5764 28.2058 94.7243 28.4599C94.998 28.9318 95.1068 29.5488 95.1515 29.9257L95.7602 29.5767C95.7323 29.2864 95.6513 28.7196 95.3079 28.1249C95.0566 27.6893 94.7076 27.3654 94.3251 27.2063C93.923 27.0415 93.5042 27.0723 93.1189 27.2956C92.4293 27.6893 92.3511 28.3091 92.3204 29.077L92.2952 30.2245C92.2729 30.6545 92.2254 31.0872 91.8932 31.2771C91.5302 31.4865 90.9411 31.3385 90.5446 30.6461C90.2347 30.1072 90.1565 29.3701 90.1286 28.929L89.4948 29.2947L89.4892 29.2892Z" fill="white"/>
<path d="M98.6881 38.7984L93.8327 40.2112L93.5088 39.0916L98.3642 37.6816L97.7667 35.6322L98.7299 35.353L100.246 40.5686L99.2828 40.845L98.6881 38.7984Z" fill="white"/>
<path d="M99.1686 41.0575L98.5739 39.0109L93.7185 40.4237L93.2969 38.9774L98.1523 37.5674L97.5548 35.5181L98.8475 35.1411L100.459 40.6862L99.1658 41.0575H99.1686ZM98.8056 38.5865L99.4003 40.6359L100.034 40.4516L98.6157 35.5655L97.982 35.7498L98.5794 37.7992L93.7241 39.2092L93.953 39.9993L98.8084 38.5865H98.8056Z" fill="white"/>
<path d="M95.0897 47.4201L101.14 47.0404L101.213 48.1907L95.1595 48.5704L95.0869 47.4201H95.0897Z" fill="white"/>
<path d="M95.0018 48.7517L94.9097 47.2579L101.303 46.8559L101.398 48.3496L95.0018 48.7517ZM95.2726 47.579L95.3229 48.3859L101.033 48.0286L100.98 47.2217L95.2698 47.579H95.2726Z" fill="white"/>
<path d="M95.0379 54.4258L101.038 55.3192L100.868 56.4612L95.8615 55.7157L95.4036 58.7786L94.4097 58.6306L95.0379 54.4258Z" fill="white"/>
<path d="M95.5481 58.9743L94.2163 58.7761L94.2414 58.6058L94.8948 54.2334L95.0651 54.2585L101.233 55.1771L101.012 56.6569L100.842 56.6318L96.006 55.9086L95.5481 58.9715V58.9743ZM94.6044 58.4885L95.2605 58.5862L95.7184 55.5233L95.8887 55.5485L100.725 56.2716L100.845 55.4675L95.1824 54.6243L94.6044 58.4913V58.4885Z" fill="white"/>
<path d="M92.9742 63.547L98.5834 65.8504L98.1451 66.9198L93.4656 64.9933L92.2901 67.8579L91.3604 67.4754L92.9742 63.547Z" fill="white"/>
<path d="M92.381 68.0841L91.1357 67.5704L92.8808 63.3237L98.8055 65.7583L98.2387 67.146L93.5592 65.2195L92.3838 68.0841H92.381ZM91.5825 67.3833L92.1939 67.6374L93.3694 64.7727L98.0489 66.6993L98.356 65.9454L93.065 63.7732L91.5797 67.3861L91.5825 67.3833Z" fill="white"/>
<path d="M88.776 71.9006L93.6649 75.4856L91.4927 78.4452L90.6746 77.8449L92.1656 75.8123L90.9706 74.9356L89.8593 76.4489L89.0496 75.8542L90.1581 74.3409L88.91 73.4251L87.3381 75.5694L86.52 74.9663L88.7732 71.895L88.776 71.9006Z" fill="white"/>
<path d="M91.529 78.6856L90.4345 77.8843L91.9255 75.8517L91.0069 75.1788L89.8956 76.6921L88.8095 75.8963L89.918 74.383L88.9463 73.6683L87.3744 75.8126L86.2827 75.0057L88.7369 71.6608L93.9022 75.4468L91.529 78.6828V78.6856ZM90.9119 77.8089L91.4536 78.2054L93.422 75.5222L88.8095 72.141L86.7602 74.9359L87.3018 75.3351L88.871 73.1908L90.3954 74.3076L89.287 75.8209L89.8203 76.2118L90.9315 74.6985L92.4029 75.7763L90.9119 77.8089Z" fill="white"/>
<path d="M79.7959 81.2968C80.2789 80.8919 80.6754 80.8668 81.4069 81.0929L83.1771 81.6346L83.4144 81.4364L81.9318 79.6578L82.8169 78.9207L86.6978 83.5807L85.3102 84.7366C84.252 85.6189 83.191 85.5965 82.4958 84.7617C81.8648 84.0078 82.1328 83.0613 82.3338 82.5476L80.7563 82.1092C80.4771 82.0227 80.2789 82.0199 80.1058 82.1651C79.9662 82.2796 79.9494 82.461 79.941 82.6369L79.3631 82.5755C79.3519 82.4471 79.2319 81.7686 79.7903 81.3051L79.7959 81.2968ZM84.6624 83.952L85.165 83.536L84.0175 82.1567L83.6238 82.4834C83.1408 82.8882 82.9844 83.5332 83.3306 83.952C83.6852 84.3764 84.1571 84.3764 84.6652 83.952H84.6624Z" fill="white"/>
<path d="M83.7638 85.5602C83.2361 85.5602 82.7503 85.3285 82.365 84.8678C81.8904 84.2982 81.8038 83.5527 82.1109 82.6593L80.7121 82.2684C80.4273 82.1846 80.3128 82.2125 80.2179 82.2907C80.1342 82.3577 80.123 82.489 80.1174 82.6397L80.109 82.8212L79.21 82.7235L79.1988 82.5839C79.1262 81.9613 79.2909 81.4922 79.6846 81.1655C80.2598 80.6853 80.7512 80.7104 81.4576 80.9282L83.1384 81.4419L83.1747 81.414L81.6921 79.6355L82.8397 78.6778L86.9412 83.6002L85.4251 84.865C84.8667 85.3313 84.2971 85.563 83.7666 85.563L83.7638 85.5602ZM80.4329 81.8719C80.5613 81.8719 80.6898 81.9026 80.8098 81.9389L82.566 82.4275L82.4962 82.6034C82.164 83.455 82.2086 84.1419 82.6302 84.6472C83.2752 85.4234 84.2385 85.4039 85.2045 84.5998L86.461 83.5555L82.7978 79.158L82.1751 79.6773L83.6577 81.4559L83.2166 81.8244L83.1272 81.7965L81.3571 81.2549C80.6507 81.0399 80.324 81.079 79.9052 81.428C79.5227 81.7435 79.5087 82.179 79.5255 82.4136L79.7907 82.4415C79.8131 82.3019 79.8605 82.1427 80.0001 82.0283C80.1369 81.9138 80.2877 81.8747 80.4329 81.8747V81.8719ZM83.9341 84.4406C83.6605 84.4406 83.4092 84.3122 83.197 84.0609C82.7978 83.5807 82.9346 82.8296 83.5097 82.3521L84.0374 81.9166L85.4028 83.5583L84.769 84.086C84.4814 84.3261 84.1966 84.4434 83.9313 84.4434L83.9341 84.4406ZM83.9928 82.3968L83.7303 82.6146C83.3031 82.9692 83.1831 83.5081 83.4595 83.8403C83.7527 84.1865 84.1184 84.1837 84.5512 83.8208L84.9225 83.5136L83.9928 82.3968Z" fill="white"/>
<path d="M74.9834 91.2667L73.833 91.8307L74.0173 87.665L72.9619 85.5095L73.9978 85.0013L75.0587 87.168L78.4567 89.5691L77.3064 90.1304L75.0252 88.4077L74.9862 91.2639L74.9834 91.2667Z" fill="white"/>
<path d="M73.6497 92.1128L73.8451 87.7041L72.7339 85.4314L74.0769 84.7753L75.1937 87.0564L78.7899 89.5999L77.2849 90.3343L75.1909 88.754L75.1546 91.3785L73.6497 92.1156V92.1128ZM73.189 85.5878L74.1886 87.6288V87.6734L74.0154 91.5488L74.814 91.1579L74.8559 88.0671L77.324 89.9294L78.1226 89.5413L74.9229 87.2825L74.9033 87.2434L73.9177 85.2304L73.189 85.5878Z" fill="white"/>
</g>
<path d="M38.5311 48C38.5265 48 38.5174 47.9977 38.5037 47.9932C38.4946 47.984 38.4878 47.9772 38.4832 47.9727L34.6072 38.1562C34.6027 38.1426 34.6049 38.1312 34.6141 38.1221C34.6232 38.1084 34.6346 38.1016 34.6482 38.1016H37.1023C37.1069 38.1016 37.1137 38.1061 37.1229 38.1152C37.1365 38.1198 37.1434 38.1243 37.1434 38.1289L39.4539 44.3018L41.9148 38.1289C41.9148 38.1243 41.9194 38.1198 41.9285 38.1152C41.9422 38.1061 41.9513 38.1016 41.9559 38.1016H44.2391C44.2573 38.1016 44.2687 38.1084 44.2732 38.1221C44.2824 38.1312 44.2846 38.1426 44.2801 38.1562L40.1375 47.9727C40.1329 47.9772 40.1261 47.984 40.117 47.9932C40.1079 47.9977 40.101 48 40.0965 48H38.5311ZM47.5326 48C47.5189 48 47.5076 47.9977 47.4984 47.9932C47.4939 47.984 47.4916 47.9727 47.4916 47.959V38.1426C47.4916 38.1289 47.4939 38.1198 47.4984 38.1152C47.5076 38.1061 47.5189 38.1016 47.5326 38.1016H49.7748C49.7885 38.1016 49.7976 38.1061 49.8021 38.1152C49.8113 38.1198 49.8158 38.1289 49.8158 38.1426V47.959C49.8158 47.9727 49.8113 47.984 49.8021 47.9932C49.7976 47.9977 49.7885 48 49.7748 48H47.5326ZM56.6777 48.1982C56.2083 48.1982 55.7822 48.139 55.3994 48.0205C55.0212 47.9066 54.6816 47.7562 54.3809 47.5693C54.0846 47.3779 53.8226 47.1637 53.5947 46.9268C53.3714 46.6898 53.18 46.4505 53.0205 46.209C53.0205 46.1953 53.0205 46.1839 53.0205 46.1748C53.0251 46.1611 53.0296 46.1543 53.0342 46.1543L54.5381 45.0195C54.5518 45.015 54.5654 45.0127 54.5791 45.0127C54.5928 45.0127 54.6019 45.015 54.6064 45.0195C54.8708 45.416 55.1989 45.7191 55.5908 45.9287C55.9873 46.1338 56.4157 46.2363 56.876 46.2363C57.2497 46.2363 57.5299 46.1429 57.7168 45.9561C57.9082 45.7692 58.0039 45.555 58.0039 45.3135C58.0039 45.0355 57.8512 44.7871 57.5459 44.5684C57.2451 44.3451 56.8099 44.1263 56.2402 43.9121C55.4427 43.6113 54.7956 43.2262 54.2988 42.7568C53.8021 42.2874 53.5537 41.613 53.5537 40.7334C53.5537 40.3005 53.6335 39.9085 53.793 39.5576C53.9525 39.2067 54.1689 38.9082 54.4424 38.6621C54.7204 38.416 55.0462 38.2269 55.4199 38.0947C55.7982 37.958 56.1992 37.8896 56.623 37.8896C57.0332 37.8896 57.4046 37.9375 57.7373 38.0332C58.0745 38.1289 58.3776 38.2542 58.6465 38.4092C58.9154 38.5596 59.1546 38.735 59.3643 38.9355C59.5785 39.1361 59.7699 39.3389 59.9385 39.5439C59.943 39.5485 59.9453 39.5576 59.9453 39.5713C59.9453 39.585 59.943 39.5941 59.9385 39.5986L58.5918 40.8291C58.5872 40.8337 58.5781 40.8359 58.5645 40.8359C58.5508 40.8359 58.5417 40.8337 58.5371 40.8291C58.291 40.5602 58.0085 40.3369 57.6895 40.1592C57.3704 39.9814 57.0378 39.8926 56.6914 39.8926C56.377 39.8926 56.1354 39.9769 55.9668 40.1455C55.7982 40.3096 55.7139 40.5283 55.7139 40.8018C55.7139 41.0889 55.8848 41.3167 56.2266 41.4854C56.5729 41.6494 57.0309 41.834 57.6006 42.0391C58.3662 42.3079 58.9814 42.6953 59.4463 43.2012C59.9157 43.707 60.1504 44.3451 60.1504 45.1152C60.1504 45.5391 60.0752 45.9378 59.9248 46.3115C59.779 46.6852 59.5602 47.0133 59.2686 47.2959C58.9814 47.5739 58.6191 47.7949 58.1816 47.959C57.7487 48.1185 57.2474 48.1982 56.6777 48.1982ZM63.8404 48C63.8268 48 63.8154 47.9977 63.8063 47.9932C63.8017 47.984 63.7994 47.9727 63.7994 47.959V38.1426C63.7994 38.1289 63.8017 38.1198 63.8063 38.1152C63.8154 38.1061 63.8268 38.1016 63.8404 38.1016H66.0826C66.0963 38.1016 66.1054 38.1061 66.11 38.1152C66.1191 38.1198 66.1236 38.1289 66.1236 38.1426V47.959C66.1236 47.9727 66.1191 47.984 66.11 47.9932C66.1054 47.9977 66.0963 48 66.0826 48H63.8404ZM72.6779 40.2139L69.301 40.1865C69.2873 40.1865 69.2759 40.1842 69.2668 40.1797C69.2622 40.1706 69.26 40.1592 69.26 40.1455V38.1426C69.26 38.1289 69.2622 38.1198 69.2668 38.1152C69.2759 38.1061 69.2873 38.1016 69.301 38.1016H78.3586C78.3723 38.1016 78.3814 38.1061 78.3859 38.1152C78.3951 38.1198 78.3996 38.1289 78.3996 38.1426V40.1455C78.3996 40.1592 78.3951 40.1706 78.3859 40.1797C78.3814 40.1842 78.3723 40.1865 78.3586 40.1865L75.0022 40.2139V47.959C75.0022 47.9727 74.9976 47.984 74.9885 47.9932C74.9839 47.9977 74.9748 48 74.9611 48H72.7189C72.7053 48 72.6939 47.9977 72.6848 47.9932C72.6802 47.984 72.6779 47.9727 72.6779 47.959V40.2139ZM37.8775 65.1982C37.4081 65.1982 36.982 65.139 36.5992 65.0205C36.221 64.9066 35.8814 64.7562 35.5807 64.5693C35.2844 64.3779 35.0224 64.1637 34.7945 63.9268C34.5712 63.6898 34.3798 63.4505 34.2203 63.209C34.2203 63.1953 34.2203 63.1839 34.2203 63.1748C34.2249 63.1611 34.2294 63.1543 34.234 63.1543L35.7379 62.0195C35.7516 62.015 35.7652 62.0127 35.7789 62.0127C35.7926 62.0127 35.8017 62.015 35.8063 62.0195C36.0706 62.416 36.3987 62.7191 36.7906 62.9287C37.1871 63.1338 37.6155 63.2363 38.0758 63.2363C38.4495 63.2363 38.7298 63.1429 38.9166 62.9561C39.108 62.7692 39.2037 62.555 39.2037 62.3135C39.2037 62.0355 39.051 61.7871 38.7457 61.5684C38.4449 61.3451 38.0097 61.1263 37.44 60.9121C36.6425 60.6113 35.9954 60.2262 35.4986 59.7568C35.0019 59.2874 34.7535 58.613 34.7535 57.7334C34.7535 57.3005 34.8333 56.9085 34.9928 56.5576C35.1523 56.2067 35.3688 55.9082 35.6422 55.6621C35.9202 55.416 36.246 55.2269 36.6197 55.0947C36.998 54.958 37.399 54.8896 37.8229 54.8896C38.233 54.8896 38.6044 54.9375 38.9371 55.0332C39.2744 55.1289 39.5774 55.2542 39.8463 55.4092C40.1152 55.5596 40.3544 55.735 40.5641 55.9355C40.7783 56.1361 40.9697 56.3389 41.1383 56.5439C41.1428 56.5485 41.1451 56.5576 41.1451 56.5713C41.1451 56.585 41.1428 56.5941 41.1383 56.5986L39.7916 57.8291C39.787 57.8337 39.7779 57.8359 39.7643 57.8359C39.7506 57.8359 39.7415 57.8337 39.7369 57.8291C39.4908 57.5602 39.2083 57.3369 38.8893 57.1592C38.5702 56.9814 38.2376 56.8926 37.8912 56.8926C37.5768 56.8926 37.3352 56.9769 37.1666 57.1455C36.998 57.3096 36.9137 57.5283 36.9137 57.8018C36.9137 58.0889 37.0846 58.3167 37.4264 58.4854C37.7727 58.6494 38.2307 58.834 38.8004 59.0391C39.566 59.3079 40.1813 59.6953 40.6461 60.2012C41.1155 60.707 41.3502 61.3451 41.3502 62.1152C41.3502 62.5391 41.275 62.9378 41.1246 63.3115C40.9788 63.6852 40.76 64.0133 40.4684 64.2959C40.1813 64.5739 39.8189 64.7949 39.3814 64.959C38.9485 65.1185 38.4472 65.1982 37.8775 65.1982ZM47.2688 61.2334V64.959C47.2688 64.9727 47.2642 64.984 47.2551 64.9932C47.2505 64.9977 47.2391 65 47.2209 65H44.9855C44.9719 65 44.9605 64.9977 44.9514 64.9932C44.9468 64.984 44.9445 64.9727 44.9445 64.959V55.1426C44.9445 55.1289 44.9468 55.1198 44.9514 55.1152C44.9605 55.1061 44.9719 55.1016 44.9855 55.1016H47.2209C47.2391 55.1016 47.2505 55.1061 47.2551 55.1152C47.2642 55.1198 47.2688 55.1289 47.2688 55.1426V59.0938H51.4934V55.1426C51.4934 55.1289 51.4956 55.1198 51.5002 55.1152C51.5093 55.1061 51.5207 55.1016 51.5344 55.1016H53.7766C53.7902 55.1016 53.7994 55.1061 53.8039 55.1152C53.813 55.1198 53.8176 55.1289 53.8176 55.1426V64.959C53.8176 64.9727 53.813 64.984 53.8039 64.9932C53.7994 64.9977 53.7902 65 53.7766 65H51.5344C51.5207 65 51.5093 64.9977 51.5002 64.9932C51.4956 64.984 51.4934 64.9727 51.4934 64.959V61.2334H47.2688ZM62.4432 65.1982C61.6593 65.1982 60.9393 65.0547 60.283 64.7676C59.6268 64.4759 59.0662 64.0954 58.6014 63.626C58.1365 63.152 57.7742 62.6074 57.5145 61.9922C57.2547 61.3724 57.1248 60.7367 57.1248 60.085C57.1248 59.2965 57.2729 58.5811 57.5691 57.9385C57.8654 57.2959 58.2573 56.7513 58.7449 56.3047C59.2371 55.8535 59.8045 55.5049 60.4471 55.2588C61.0942 55.0127 61.7596 54.8896 62.4432 54.8896C63.145 54.8896 63.8195 55.015 64.4666 55.2656C65.1137 55.5117 65.6788 55.8626 66.1619 56.3184C66.6495 56.7695 67.0369 57.3164 67.324 57.959C67.6157 58.597 67.7615 59.3057 67.7615 60.085C67.7615 60.7549 67.6271 61.3997 67.3582 62.0195C67.0893 62.6348 66.7179 63.1771 66.2439 63.6465C65.7745 64.1159 65.214 64.4919 64.5623 64.7744C63.9106 65.057 63.2042 65.1982 62.4432 65.1982ZM62.4432 56.9609C61.992 56.9609 61.5887 57.0407 61.2332 57.2002C60.8777 57.3551 60.5792 57.5716 60.3377 57.8496C60.0962 58.1276 59.9093 58.458 59.7771 58.8408C59.6495 59.2236 59.5857 59.6383 59.5857 60.085C59.5857 60.486 59.6518 60.8734 59.784 61.2471C59.9161 61.6208 60.1053 61.9489 60.3514 62.2314C60.5975 62.514 60.8982 62.7419 61.2537 62.915C61.6092 63.0837 62.0057 63.168 62.4432 63.168C62.8807 63.168 63.2749 63.0837 63.6258 62.915C63.9813 62.7464 64.2798 62.5231 64.5213 62.2451C64.7674 61.9626 64.9565 61.6344 65.0887 61.2607C65.2208 60.887 65.2869 60.4951 65.2869 60.085C65.2869 59.6429 65.2208 59.2305 65.0887 58.8477C64.9565 58.4648 64.7674 58.1344 64.5213 57.8564C64.2798 57.5785 63.9813 57.3597 63.6258 57.2002C63.2749 57.0407 62.8807 56.9609 62.4432 56.9609ZM78.5678 58.2393C78.5678 58.8226 78.4789 59.3216 78.3012 59.7363C78.1234 60.151 77.8979 60.4883 77.6244 60.748C77.351 61.0078 77.0456 61.2015 76.7084 61.3291C76.3712 61.4521 76.0453 61.5182 75.7309 61.5273L73.393 61.5957V64.959C73.393 64.9727 73.3884 64.984 73.3793 64.9932C73.3747 64.9977 73.3634 65 73.3451 65H71.1098C71.0961 65 71.0847 64.9977 71.0756 64.9932C71.071 64.984 71.0688 64.9727 71.0688 64.959V55.1426C71.0688 55.1289 71.071 55.1198 71.0756 55.1152C71.0847 55.1061 71.0961 55.1016 71.1098 55.1016H75.4096C75.8699 55.1016 76.2937 55.1768 76.6811 55.3271C77.073 55.4775 77.4079 55.6895 77.6859 55.9629C77.9639 56.2363 78.1804 56.5667 78.3354 56.9541C78.4903 57.3415 78.5678 57.7699 78.5678 58.2393ZM76.4418 58.376C76.4418 57.9658 76.3096 57.6423 76.0453 57.4053C75.781 57.1683 75.3822 57.0498 74.849 57.0498H73.3793V59.627H74.9721C75.4369 59.627 75.7969 59.5085 76.0522 59.2715C76.3119 59.0299 76.4418 58.7314 76.4418 58.376Z" fill="white"/>
</svg>
